<svg width="38" height="40" viewBox="0 0 38 40" fill="none" xmlns="http://www.w3.org/2000/svg">
<path d="M32.9147 14.8141L14.8126 32.916C13.9947 33.7341 12.6684 33.7341 11.8503 32.916L1.1981 22.2638C0.379929 21.4456 0.379929 20.1193 1.1981 19.3015L19.2999 1.19934C20.1181 0.38147 21.4444 0.38147 22.2623 1.19934L32.9147 11.8518C33.7326 12.6697 33.7326 13.996 32.9147 14.8141Z" fill="#8CBAFA"/>
<path d="M32.9148 11.8516L31.5851 10.522C32.3136 11.2504 32.241 12.5041 31.4231 13.3223L13.321 31.4241C12.5031 32.2422 11.2495 32.3149 10.521 31.5864L11.8503 32.9158C12.6685 33.7339 13.9948 33.7339 14.8127 32.9158L32.9148 14.814C33.7327 13.9958 33.7327 12.6695 32.9148 11.8516Z" fill="#5692D8"/>
<path d="M19.0044 5.32524L17.2307 7.09892C16.5331 7.79625 16.5331 8.92662 17.2307 9.62395C17.9281 10.3213 19.0584 10.3213 19.7558 9.62395L21.5294 7.85027C22.2268 7.15294 22.2268 6.02257 21.5294 5.32524C20.8321 4.62791 19.7018 4.62791 19.0044 5.32524Z" fill="#FFCD34"/>
<path d="M34.6239 20.1602H9.02393C7.867 20.1602 6.9292 21.098 6.9292 22.2546V37.3193C6.9292 38.4762 7.867 39.414 9.02393 39.414H34.6239C35.7805 39.414 36.7183 38.4762 36.7183 37.3193V22.2546C36.7183 21.098 35.7805 20.1602 34.6239 20.1602V20.1602Z" fill="#FFCD34"/>
<path d="M34.624 20.1602H32.749C33.9056 20.1602 34.8434 21.098 34.8434 22.2546V37.3193C34.8434 38.4762 33.9056 39.414 32.749 39.414H34.624C35.7806 39.414 36.7184 38.4762 36.7184 37.3193V22.2546C36.7184 21.098 35.7806 20.1602 34.624 20.1602V20.1602Z" fill="#E69012"/>
<path d="M6.9292 24.8926H36.7183V28.5117H6.9292V24.8926Z" fill="#575B7A"/>
<path d="M34.8433 24.8926H36.7183V28.5117H34.8433V24.8926Z" fill="#252D4C"/>
<path d="M29.397 34.2944V36.5265C29.397 36.6992 29.5367 36.839 29.7095 36.839H33.2599C33.4326 36.839 33.5724 36.6992 33.5724 36.5265V34.2944C33.5724 34.1217 33.4326 33.9819 33.2599 33.9819H29.7095C29.5367 33.9819 29.397 34.1217 29.397 34.2944Z" fill="#E9E9EA"/>
<path d="M18.6924 34.2944V36.5265C18.6924 36.6992 18.8325 36.839 19.0049 36.839H26.5143C26.6871 36.839 26.8268 36.6992 26.8268 36.5265V34.2944C26.8268 34.1217 26.6871 33.9819 26.5143 33.9819H19.0049C18.8325 33.9819 18.6924 34.1217 18.6924 34.2944Z" fill="#E9E9EA"/>
<path d="M1.61255 21.8498C1.02417 21.2614 1.02417 20.304 1.61255 19.716L15.9708 5.35775C16.1996 5.12887 16.1996 4.75777 15.9708 4.5292C15.7419 4.30001 15.3708 4.30032 15.1422 4.5292L0.783691 18.8874C-0.26123 19.9323 -0.26123 21.6331 0.783691 22.6783L4.40033 26.2946C4.51447 26.4088 4.66461 26.4661 4.81445 26.4661C4.9646 26.4661 5.11444 26.4091 5.22888 26.2946C5.45776 26.0658 5.45776 25.6947 5.22888 25.4661L1.61255 21.8498Z" fill="black"/>
<path d="M13.131 11.669L4.26443 20.5356C4.03555 20.7645 4.03555 21.1355 4.26443 21.3644C4.37888 21.4786 4.52872 21.5359 4.67886 21.5359C4.8287 21.5359 4.97855 21.4789 5.09299 21.3644L13.9596 12.4978C14.1884 12.269 14.1884 11.8979 13.9596 11.669C13.731 11.4404 13.3599 11.4404 13.131 11.669Z" fill="black"/>
<path fill-rule="evenodd" clip-rule="evenodd" d="M20.17 10.0388C19.7077 10.5012 19.1004 10.7322 18.4931 10.7322C17.8858 10.7322 17.2785 10.5012 16.8162 10.0388C16.3682 9.59085 16.1216 8.99515 16.1216 8.36191C16.1216 7.72836 16.3682 7.13297 16.8162 6.68497L18.5898 4.91129C19.5145 3.9866 21.019 3.9866 21.9437 4.91129C22.8684 5.83597 22.8684 7.34048 21.9437 8.26517L20.17 10.0388ZM19.4184 5.73984L17.6447 7.51352C17.4183 7.73996 17.2935 8.04147 17.2935 8.36191C17.2935 8.68234 17.4183 8.98355 17.6447 9.20999C18.1125 9.67783 18.8737 9.67783 19.3412 9.20999L21.1149 7.43631C21.5827 6.96878 21.5827 6.20767 21.1149 5.73984C20.6473 5.272 19.8862 5.272 19.4184 5.73984Z" fill="black"/>
<path fill-rule="evenodd" clip-rule="evenodd" d="M34.6236 19.5743H28.9833L33.329 15.2286C34.3743 14.1833 34.3743 12.4826 33.329 11.4374L22.6766 0.785217C22.1703 0.278931 21.4971 0 20.7811 0C20.0652 0 19.392 0.278931 18.8854 0.785217L16.798 2.87262C16.5694 3.1015 16.5694 3.47229 16.798 3.70117C17.0269 3.93005 17.3979 3.93005 17.6265 3.70117L19.7142 1.61377C19.999 1.32874 20.378 1.17188 20.7811 1.17188C21.184 1.17188 21.563 1.32874 21.848 1.61377L32.5002 12.2659C33.0886 12.8543 33.0886 13.8113 32.5002 14.3997L27.3259 19.574H12.5185L16.7775 15.3149C17.0064 15.0864 17.0064 14.7153 16.7775 14.4864C16.5486 14.2575 16.1776 14.2575 15.949 14.4864L10.8614 19.5743H9.02393C7.54565 19.5743 6.34326 20.7767 6.34326 22.2546V37.3193C6.34326 38.7973 7.54565 40 9.02393 40H34.6236C36.1019 40 37.3043 38.7973 37.3043 37.3193V35.1538C37.3043 34.83 37.0421 34.5679 36.7183 34.5679C36.3948 34.5679 36.1324 34.83 36.1324 35.1538V37.3193C36.1324 38.1512 35.4558 38.8281 34.6236 38.8281H9.02393C8.19202 38.8281 7.51514 38.1512 7.51514 37.3193V29.0976H36.1324V32.8101C36.1324 33.1335 36.3945 33.396 36.7183 33.396C37.0421 33.396 37.3043 33.1335 37.3043 32.8101V22.2549C37.3043 20.7767 36.1019 19.5743 34.6236 19.5743ZM9.02393 20.7462H34.6236C35.4555 20.7462 36.1324 21.423 36.1324 22.2549V24.3069H7.51514V22.2549C7.51514 21.423 8.19202 20.7462 9.02393 20.7462ZM7.51514 25.4788V27.9257H36.1324V25.4788H7.51514Z" fill="black"/>
<path fill-rule="evenodd" clip-rule="evenodd" d="M28.811 34.2944C28.811 33.7991 29.2142 33.396 29.7095 33.396H33.2599C33.7552 33.396 34.1583 33.7991 34.1583 34.2944V36.5265C34.1583 37.0221 33.7552 37.4249 33.2599 37.4249H29.7095C29.2142 37.4249 28.811 37.0221 28.811 36.5265V34.2944ZM29.9829 36.2531H32.9865V34.5679H29.9829V36.2531Z" fill="black"/>
<path fill-rule="evenodd" clip-rule="evenodd" d="M18.1064 34.2944C18.1064 33.7991 18.5096 33.396 19.0049 33.396H26.5143C27.0096 33.396 27.4128 33.7991 27.4128 34.2944V36.5265C27.4128 37.0221 27.0096 37.4249 26.5143 37.4249H19.0049C18.5096 37.4249 18.1064 37.0221 18.1064 36.5265V34.2944ZM19.2783 36.2531H26.2409V34.5679H19.2783V36.2531Z" fill="black"/>
<path d="M11.8901 36.2529C11.5667 36.2529 11.3042 36.5154 11.3042 36.8389C11.3042 37.1627 11.5667 37.4248 11.8901 37.4248H15.6316C15.9551 37.4248 16.2175 37.1627 16.2175 36.8389C16.2175 36.5154 15.9551 36.2529 15.6316 36.2529H11.8901Z" fill="black"/>
</svg>
