<svg width="42" height="42" viewBox="0 0 42 42" fill="none" xmlns="http://www.w3.org/2000/svg">
<rect width="42" height="42" rx="21" fill="#E9D2C2"/>
<path fill-rule="evenodd" clip-rule="evenodd" d="M13 12C12.4477 12 12 12.4477 12 13V29C12 29.5523 12.4477 30 13 30C13.5523 30 14 29.5523 14 29V13C14 12.4477 13.5523 12 13 12ZM29.9945 13.8507C29.9182 12.8159 29.0544 12 28 12H18L17.8507 12.0055C16.8159 12.0818 16 12.9456 16 14V18L16.0055 18.1493C16.0818 19.1841 16.9456 20 18 20H28L28.1493 19.9945C29.1841 19.9182 30 19.0544 30 18V14L29.9945 13.8507ZM28 22C29.0544 22 29.9182 22.8159 29.9945 23.8507L30 24V28C30 29.0544 29.1841 29.9182 28.1493 29.9945L28 30H18C16.9456 30 16.0818 29.1841 16.0055 28.1493L16 28V24C16 22.9456 16.8159 22.0818 17.8507 22.0055L18 22H28ZM28 24H18V28H28V24ZM28 14H18V18H28V14Z" fill="#A77366"/>
</svg>
