<svg width="109" height="109" viewBox="0 0 109 109" fill="none" xmlns="http://www.w3.org/2000/svg">
<path d="M54.5 0C84.5995 0 109 24.4005 109 54.5C109 84.5995 84.5995 109 54.5 109C24.4005 109 0 84.5995 0 54.5C0 24.4005 24.4005 0 54.5 0Z" fill="#E9D2C2"/>
<path fill-rule="evenodd" clip-rule="evenodd" d="M46.4444 42.7785C46.4444 37.323 41.9685 32.9004 36.4473 32.9004C30.926 32.9004 26.4502 37.323 26.4502 42.7785C26.4502 48.2341 30.926 52.6566 36.4473 52.6566L36.9782 52.6429C39.193 52.5284 41.2168 51.7017 42.8196 50.3902L51.2099 56.0602L42.8196 61.7356C41.0896 60.32 38.869 59.4691 36.4473 59.4691C30.926 59.4691 26.4502 63.8917 26.4502 69.3473C26.4502 74.8028 30.926 79.2254 36.4473 79.2254C41.9685 79.2254 46.4444 74.8028 46.4444 69.3473L46.4305 68.8227C46.3828 67.9219 46.213 67.0531 45.9371 66.2322L56.094 59.3629L79.3598 75.0921L79.6575 75.2676C80.8758 75.8876 82.3992 75.5284 83.1932 74.3819C84.0532 73.1399 83.7314 71.444 82.4744 70.5942L45.9371 45.8936C46.2662 44.9143 46.4444 43.867 46.4444 42.7785ZM31.9658 69.3473C31.9658 66.9017 33.9722 64.9191 36.4473 64.9191C38.9223 64.9191 40.9287 66.9017 40.9287 69.3473C40.9287 71.7929 38.9223 73.7754 36.4473 73.7754C33.9722 73.7754 31.9658 71.7929 31.9658 69.3473ZM83.1932 37.7439C83.9871 38.8904 83.7739 40.4235 82.7478 41.321L82.4744 41.5316L64.9798 53.3591C63.7228 54.209 62.0065 53.891 61.1465 52.6489C60.3526 51.5024 60.5657 49.9693 61.5919 49.0717L61.8652 48.8612L79.3598 37.0337C80.6168 36.1838 82.3331 36.5018 83.1932 37.7439ZM31.9658 42.7785C31.9658 40.3329 33.9722 38.3504 36.4473 38.3504C38.9223 38.3504 40.9287 40.3329 40.9287 42.7785C40.9287 45.2241 38.9223 47.2066 36.4473 47.2066C33.9722 47.2066 31.9658 45.2241 31.9658 42.7785Z" fill="#A77366"/>
</svg>
