<svg width="173" height="136" viewBox="0 0 173 136" fill="none" xmlns="http://www.w3.org/2000/svg">
<rect width="172.152" height="136" fill="white"/>
<path d="M110.915 86.8937C112.173 85.6283 112.173 83.5767 110.915 82.3113L71.917 43.1009C70.6584 41.8355 68.6179 41.8355 67.3595 43.1009L65.6504 44.8193L109.206 88.6121L110.915 86.8937Z" fill="#858A79"/>
<path d="M110.915 86.8937C112.173 85.6283 112.173 83.5767 110.915 82.3113L71.9169 43.1009C70.6583 41.8355 68.6179 41.8355 67.3594 43.1009L106.927 82.8842C107.871 83.8333 107.871 85.372 106.927 86.3209V86.3209L109.205 88.6121L110.915 86.8937Z" fill="#555C4B"/>
<path fill-rule="evenodd" clip-rule="evenodd" d="M112.713 41.2937L112.714 41.293C113.305 41.8868 113.358 42.8329 112.837 43.489C102.777 56.1484 92.304 68.5214 81.5328 80.5695L70.8661 83.3602C68.3514 85.9516 64.2218 85.958 61.6959 83.4188C59.1768 80.8867 59.1769 76.7885 61.6959 74.2564C64.3923 71.5459 68.8514 71.7691 71.2644 74.7635C72.1544 73.9537 73.6992 72.5931 73.6992 72.5931L112.713 41.2937ZM63.9743 81.1284C65.2307 82.3913 67.2752 82.3913 68.5317 81.1284C69.7881 79.8653 69.7881 77.8101 68.5317 76.5471C67.2752 75.2839 65.2306 75.2842 63.9743 76.5471C62.7148 77.8132 62.7149 79.8624 63.9743 81.1284Z" fill="#D5AC94"/>
<path fill-rule="evenodd" clip-rule="evenodd" d="M80.5309 81.7137C80.1654 82.1352 79.8001 82.5563 79.4213 82.9772C79.5958 83.1195 79.7644 83.2712 79.9253 83.4333C81.1426 84.6569 81.813 86.2839 81.813 88.0144C81.813 89.7449 81.1426 91.372 79.9253 92.5957C78.6689 93.8589 77.0183 94.4903 75.3679 94.4903C73.5567 94.4903 71.7453 93.7298 70.4548 92.2085C69.5765 91.173 69.0431 89.8754 68.9417 88.5183C68.7985 86.6017 69.4758 84.775 70.8106 83.4332L70.809 83.4316V83.4211L70.8104 83.4197C70.8209 83.4091 70.8309 83.3984 70.8409 83.3876C70.8491 83.3787 70.8573 83.3698 70.8658 83.361L73.289 80.9252C75.5223 78.6803 75.7169 75.0364 73.6992 72.5938C74.0702 72.2587 74.4326 71.9238 74.7947 71.5891C75.2125 71.203 75.6299 70.8172 76.0594 70.4322L76.0604 70.4312C87.2842 60.3685 98.777 50.6101 110.53 41.1706C111.182 40.6464 112.123 40.7 112.714 41.2937L80.101 74.0778C79.2855 74.8975 78.8979 76.0499 79.0373 77.2007L79.0429 77.2479C79.1676 78.3146 79.7444 79.2804 80.6393 79.8672C80.9277 80.0562 81.1692 80.2615 81.4296 80.4828C81.4636 80.5117 81.4979 80.5409 81.5327 80.5703C81.1917 80.9517 80.8612 81.3328 80.5309 81.7137ZM75.3686 84.7748C72.4862 84.7748 71.0796 88.2838 73.09 90.305C75.1218 92.3473 78.5913 90.8785 78.5912 88.0143C78.5912 86.2237 77.1497 84.7748 75.3686 84.7748Z" fill="#A77366"/>
<path fill-rule="evenodd" clip-rule="evenodd" d="M113.278 40.7171L113.282 40.7205C114.164 41.6077 114.243 43.0155 113.465 43.9952C107.727 51.2153 101.738 58.4826 95.5612 65.728L111.486 81.7381C112.246 82.5032 112.666 83.5203 112.666 84.6022C112.666 85.6841 112.246 86.7012 111.486 87.4662L109.777 89.1838L109.777 89.1846L109.776 89.1854L103.931 95.0622C103.774 95.2203 103.567 95.2994 103.361 95.2994C103.155 95.2994 102.949 95.2203 102.791 95.0622C102.477 94.7458 102.477 94.233 102.791 93.9166L108.067 88.6119L106.914 87.4527L101.639 92.7574C101.481 92.9155 101.275 92.9946 101.069 92.9946C100.863 92.9946 100.656 92.9155 100.499 92.7574C100.184 92.4411 100.184 91.9282 100.499 91.6118L105.775 86.3071L104.622 85.1479L99.3462 90.4526C99.1888 90.6108 98.9825 90.6898 98.7764 90.6898C98.5702 90.6898 98.364 90.6108 98.2066 90.4526C97.892 90.1363 97.892 89.6235 98.2066 89.307L103.483 84.0023L102.33 82.8432L97.0538 88.1479C96.8964 88.306 96.6901 88.3851 96.484 88.3851C96.2779 88.3851 96.0716 88.306 95.9142 88.1479C95.5996 87.8315 95.5996 87.3187 95.9142 87.0022L101.19 81.6975L100.037 80.5383L94.7613 85.8431C94.6039 86.0012 94.3977 86.0803 94.1915 86.0803C93.9854 86.0803 93.7791 86.0012 93.6217 85.8431C93.3071 85.5267 93.3071 85.0139 93.6217 84.6974L98.8977 79.3926L97.7448 78.2335L92.4689 83.5382C92.3115 83.6963 92.1053 83.7754 91.8991 83.7754C91.693 83.7754 91.4867 83.6963 91.3294 83.5382C91.0147 83.2218 91.0147 82.709 91.3294 82.3926L96.6053 77.0879L95.4524 75.9287L90.1765 81.2334C90.0191 81.3915 89.8129 81.4706 89.6067 81.4706C89.4006 81.4706 89.1943 81.3915 89.037 81.2334C88.7223 80.9171 88.7223 80.4042 89.037 80.0878L94.3129 74.7831L93.1599 73.6238L87.884 78.9285C87.7266 79.0867 87.5204 79.1657 87.3142 79.1657C87.1081 79.1657 86.9019 79.0867 86.7445 78.9285C86.4298 78.6122 86.4298 78.0993 86.7445 77.7829L92.0204 72.4782L90.8065 71.2577C87.9703 74.5279 85.0992 77.7901 82.1967 81.0376L80.5516 82.9179C81.8847 84.2876 82.6195 86.0967 82.6173 88.0138C82.6217 92.0477 79.3653 95.3 75.3697 95.3H75.3611C70.4712 95.3 66.9531 90.5046 68.4647 85.7764C66.8787 86.2876 65.123 86.2427 63.5203 85.5901C60.8211 84.4878 58.9965 81.8362 59.0001 78.8342C58.9954 74.8504 62.2152 71.5523 66.2433 71.5523H66.2541C68.3712 71.5523 70.3747 72.4768 71.7518 74.0883C72.1734 74.3919 72.2001 75.0065 71.8227 75.3476L71.8152 75.3542C71.8109 75.3585 71.8077 75.3618 71.8034 75.365C71.4639 75.6748 70.9284 75.6357 70.6368 75.2743C69.5615 73.9404 67.962 73.1735 66.2487 73.1725C63.1032 73.1747 60.6135 75.7347 60.6113 78.8342C60.6148 83.9396 66.7848 86.3994 70.2884 82.7947L72.7183 80.3515C73.7312 79.3341 74.2887 77.971 74.2887 76.514C74.2887 75.2677 73.8601 74.0623 73.0845 73.1184C73.084 73.1184 73.0838 73.1181 73.0836 73.1179L73.0834 73.1173C72.847 72.8795 72.7562 72.2703 73.2327 71.9237C73.5747 71.6136 73.9186 71.296 74.2582 70.9825L74.2587 70.982C74.6914 70.5824 75.117 70.1895 75.5219 69.8273C75.5219 69.8262 75.5219 69.8262 75.523 69.8262C77.9563 67.6445 80.4173 65.4656 82.8912 63.2995L81.6976 62.0994L76.4216 67.4042C76.2643 67.5623 76.058 67.6414 75.8519 67.6414C75.6458 67.6414 75.4395 67.5623 75.2822 67.4042C74.9676 67.0878 74.9676 66.575 75.2822 66.2586L80.5582 60.9539L79.4051 59.7945L74.1292 65.0992C73.9719 65.2573 73.7657 65.3364 73.5595 65.3364C73.3534 65.3364 73.1471 65.2573 72.9899 65.0992C72.6752 64.7828 72.6752 64.27 72.9899 63.9536L78.2658 58.6489L77.1128 57.4896L71.8369 62.7943C71.6796 62.9524 71.4734 63.0315 71.2672 63.0315C71.0611 63.0315 70.8548 62.9524 70.6976 62.7943C70.3829 62.478 70.3829 61.9651 70.6976 61.6487L75.9735 56.344L74.8205 55.1847L69.5446 60.4894C69.3874 60.6475 69.1811 60.7266 68.975 60.7266C68.7688 60.7266 68.5626 60.6475 68.4053 60.4894C68.0907 60.1731 68.0907 59.6602 68.4053 59.3438L73.6812 54.0391L72.5283 52.8798L67.2523 58.1845C67.0951 58.3427 66.8888 58.4217 66.6827 58.4217C66.4765 58.4217 66.2703 58.3427 66.113 58.1845C65.7984 57.8682 65.7984 57.3554 66.113 57.0389L71.3889 51.7342L70.236 50.5749L64.96 55.8798C64.8027 56.0379 64.5964 56.1169 64.3903 56.1169C64.1842 56.1169 63.9779 56.0379 63.8206 55.8798C63.506 55.5634 63.506 55.0506 63.8206 54.7341L69.0967 49.4294L67.9437 48.2702L62.6677 53.5749C62.5104 53.733 62.3042 53.812 62.098 53.812C61.8919 53.812 61.6856 53.733 61.5284 53.5749C61.2137 53.2585 61.2137 52.7457 61.5284 52.4292L66.8043 47.1245L65.6513 45.9653L60.3753 51.27C60.0608 51.5862 59.5506 51.5862 59.236 51.27C58.9213 50.9536 58.9213 50.4408 59.236 50.1243L66.7906 42.5284C68.3613 40.9495 70.9168 40.9493 72.4876 42.5284L88.3944 58.5217C89.7875 57.3231 91.182 56.131 92.5752 54.9482C98.305 50.0835 104.176 45.235 110.025 40.5378C110.454 40.1912 110.996 40 111.549 40H111.552C112.192 40 112.819 40.2598 113.274 40.7131L113.278 40.7171ZM67.9304 43.6739L66.7911 44.8195L84.1103 62.2334C85.128 61.3456 86.1478 60.4617 87.1684 59.5801L71.3486 43.6739C70.4062 42.7265 68.8727 42.7265 67.9304 43.6739ZM110.347 82.8843C110.804 83.3432 111.055 83.9535 111.055 84.6026C111.055 85.2517 110.804 85.862 110.347 86.3209L109.208 87.4664L91.8681 70.0324C92.7522 69.0093 93.6332 67.9855 94.51 66.961L110.347 82.8843ZM81.267 79.3223C81.3359 79.37 81.3972 79.4125 81.4476 79.4513C99.2394 59.5147 112.214 42.9906 112.28 42.874L111.794 43.3625C107.803 47.3741 80.6404 74.6758 80.5507 74.7785C80.2578 75.1103 79.7468 75.1453 79.4131 74.8465C79.0812 74.5506 79.0501 74.0375 79.3455 73.7027C79.4813 73.5488 107.08 45.8109 110.742 42.1298L111.141 41.7291C110.826 41.9105 94.0672 55.3723 76.5989 71.0325L76.5957 71.0369C76.1457 71.4401 75.7398 71.8153 75.318 72.2053C75.1426 72.3674 74.9644 72.5321 74.7792 72.7025C75.5138 73.83 75.9027 75.1487 75.9016 76.5139C75.9016 78.3824 75.1754 80.1736 73.8586 81.4975L71.4684 83.9007C71.454 83.9213 71.4192 83.9582 71.3691 84.0113C70.9899 84.4137 69.7314 85.7492 69.7282 88.0137C69.7282 91.1639 72.2682 93.6756 75.3677 93.6798C78.5037 93.6776 81.005 91.1355 81.0073 88.0137C81.006 86.3127 80.2658 84.7155 78.9136 83.6057C78.7428 83.4664 78.6343 83.259 78.6182 83.0387C78.601 82.8184 78.6762 82.5971 78.8234 82.4329C79.2108 82.0027 79.5619 81.5981 79.9416 81.1605C80.0804 81.0006 80.2229 80.8363 80.3724 80.6648C80.3133 80.6216 80.2564 80.5828 80.1995 80.5449C79.1102 79.8311 78.3969 78.6634 78.2433 77.3426H78.2423C78.187 76.8624 78.558 76.4374 79.0447 76.4374C79.4518 76.4374 79.7945 76.7442 79.8428 77.1524C79.9936 78.4395 80.8027 79.0003 81.267 79.3223Z" fill="#3A2228"/>
<path fill-rule="evenodd" clip-rule="evenodd" d="M63.4032 81.7014C62.6419 80.936 62.2227 79.9191 62.2227 78.8378C62.2224 75.2605 66.5585 73.4194 69.0998 75.9745C70.6724 77.5551 70.6721 80.1208 69.0998 81.7014C68.3146 82.4907 67.2829 82.8854 66.2515 82.8854C65.2198 82.8854 64.1886 82.4909 63.4032 81.7014ZM66.2524 76.4089C64.0909 76.4089 63.0341 79.0376 64.5433 80.555C65.4858 81.5023 67.0191 81.5021 67.9615 80.555C69.4639 79.0446 68.4202 76.409 66.2524 76.4089Z" fill="#3A2228"/>
<path fill-rule="evenodd" clip-rule="evenodd" d="M71.6551 86.4607C72.2893 84.9211 73.7123 83.9648 75.3689 83.9648C77.59 83.9648 79.397 85.7814 79.3971 88.0142C79.3971 89.6785 78.4419 91.1102 76.9044 91.7507C76.3898 91.965 75.8585 92.0698 75.3357 92.0698C74.3008 92.0698 73.2986 91.6598 72.5207 90.8778C71.3495 89.7004 71.0177 88.0078 71.6551 86.4607ZM73.6585 89.7322C74.4967 90.5748 75.5654 90.5541 76.2862 90.2541C77.0105 89.9524 77.7843 89.2056 77.7843 88.0142C77.7843 86.6747 76.7001 85.5849 75.3674 85.5849C74.1812 85.5849 73.4402 86.3576 73.1423 87.0807C72.8421 87.8098 72.8198 88.8891 73.6585 89.7322Z" fill="#3A2228"/>
</svg>
