<svg width="109" height="109" viewBox="0 0 109 109" fill="none" xmlns="http://www.w3.org/2000/svg">
<path d="M54.5 0C84.5995 0 109 24.4005 109 54.5C109 84.5995 84.5995 109 54.5 109C24.4005 109 0 84.5995 0 54.5C0 24.4005 24.4005 0 54.5 0Z" fill="#E9D2C2"/>
<path fill-rule="evenodd" clip-rule="evenodd" d="M70.04 27.1318C69.8826 25.7766 68.7308 24.7246 67.3333 24.7246C65.8283 24.7246 64.6083 25.9446 64.6083 27.4496L64.608 30.1746H56.4248V27.4496L56.4065 27.1318C56.2491 25.7766 55.0973 24.7246 53.6998 24.7246C52.1948 24.7246 50.9748 25.9446 50.9748 27.4496V30.1746H42.808L42.8083 27.4496L42.79 27.1318C42.6326 25.7766 41.4808 24.7246 40.0833 24.7246C38.5783 24.7246 37.3583 25.9446 37.3583 27.4496L37.358 30.1746H34.0798L33.6838 30.19C31.1983 30.3833 29.1748 32.3795 29.1748 34.9137V73.1822L29.1896 73.6846C29.4651 78.3372 33.5438 81.9496 38.4398 81.9496H68.9598L69.4811 81.9359C74.3149 81.6812 78.2248 77.9059 78.2248 73.1822V34.9137L78.2082 34.5183C77.9995 32.0441 75.8496 30.1746 73.3198 30.1746H70.058L70.0583 27.4496L70.04 27.1318ZM34.6248 35.6246H37.358L37.3583 38.3496L37.3767 38.6674C37.5341 40.0226 38.6858 41.0746 40.0833 41.0746C41.5883 41.0746 42.8083 39.8546 42.8083 38.3496L42.808 35.6246H50.9748V38.3496L50.9931 38.6674C51.1505 40.0226 52.3023 41.0746 53.6998 41.0746C55.2048 41.0746 56.4248 39.8546 56.4248 38.3496V35.6246H64.608L64.6083 38.3496L64.6267 38.6674C64.7841 40.0226 65.9358 41.0746 67.3333 41.0746C68.8383 41.0746 70.0583 39.8546 70.0583 38.3496L70.058 35.6246H72.7748V73.1822L72.7556 73.5131C72.5651 75.15 70.9783 76.4996 68.9598 76.4996H38.4398L38.0422 76.4819L37.6577 76.4301C35.8973 76.1119 34.6248 74.7414 34.6248 73.1822V35.6246ZM61.8748 60.1496C63.3798 60.1496 64.5998 61.3696 64.5998 62.8746C64.5998 64.2721 63.5478 65.4239 62.1926 65.5813L61.8748 65.5996H45.5248C44.0198 65.5996 42.7998 64.3796 42.7998 62.8746C42.7998 61.4771 43.8518 60.3254 45.207 60.1679L45.5248 60.1496H61.8748ZM64.5998 51.9746C64.5998 50.4696 63.3798 49.2496 61.8748 49.2496H45.5248L45.207 49.2679C43.8518 49.4254 42.7998 50.5771 42.7998 51.9746C42.7998 53.4796 44.0198 54.6996 45.5248 54.6996H61.8748L62.1926 54.6813C63.5478 54.5239 64.5998 53.3721 64.5998 51.9746Z" fill="#A77366"/>
</svg>
