<svg width="109" height="109" viewBox="0 0 109 109" fill="none" xmlns="http://www.w3.org/2000/svg">
<path d="M54.5 0C84.5995 0 109 24.4005 109 54.5C109 84.5995 84.5995 109 54.5 109C24.4005 109 0 84.5995 0 54.5C0 24.4005 24.4005 0 54.5 0Z" fill="#E9D2C2"/>
<path fill-rule="evenodd" clip-rule="evenodd" d="M32.9396 38.4843C32.3937 36.9073 32.7963 35.1569 33.9764 33.9768L34.2585 33.7184C35.4247 32.7404 37.0281 32.4362 38.4838 32.9401L78.8171 46.9016C80.5985 47.5183 81.7815 49.2103 81.7494 51.0968C81.716 52.9815 80.475 54.6314 78.6732 55.1858L60.7098 60.7103L55.1853 78.6737C54.6679 80.3553 53.1961 81.5485 51.4684 81.7273L51.0945 81.7499C49.2098 81.782 47.5178 80.599 46.9011 78.8176L32.9396 38.4843ZM75.6284 50.9886L37.9408 37.9413L50.9881 75.6289L56.1089 58.9933C56.4948 57.7392 57.4223 56.7327 58.6242 56.2411L58.9928 56.1094L75.6284 50.9886Z" fill="#A77366"/>
</svg>
