<svg width="40" height="40" viewBox="0 0 40 40" fill="none" xmlns="http://www.w3.org/2000/svg">
<path d="M20 0C31.0457 0 40 8.9543 40 20C40 31.0457 31.0457 40 20 40C8.9543 40 0 31.0457 0 20C0 8.9543 8.9543 0 20 0Z" fill="#E9D2C2"/>
<rect opacity="0.01" x="8" y="8" width="24" height="24" fill="white" fill-opacity="0.01"/>
<path fill-rule="evenodd" clip-rule="evenodd" d="M27.0186 24V18.5C27.0186 15.4 24.6588 12.9 21.5882 12.2V11.5C21.5882 10.7 20.8471 10 20 10C19.1529 10 18.4118 10.7 18.4118 11.5V12.2C15.3412 12.9 12.9917 15.4 12.9917 18.5V24L11 26V27H29V26L27.0186 24ZM20 30C21.0421 30 21.8947 29.1 21.8947 28H18.1053C18.1053 29.1 18.9579 30 20 30ZM14.9754 25H25.006V18.5C25.006 16 22.8947 14 20 14C17.1053 14 14.9754 16 14.9754 18.5V25Z" fill="#A77366"/>
</svg>
