<svg width="40" height="40" viewBox="0 0 40 40" fill="none" xmlns="http://www.w3.org/2000/svg">
<path d="M20 0C31.0457 0 40 8.9543 40 20C40 31.0457 31.0457 40 20 40C8.9543 40 0 31.0457 0 20C0 8.9543 8.9543 0 20 0Z" fill="#E9D2C2"/>
<rect opacity="0.01" x="8" y="8" width="24" height="24" fill="white" fill-opacity="0.01"/>
<path fill-rule="evenodd" clip-rule="evenodd" d="M28.1818 15H24.7045V14.6C24.7045 12.06 22.5977 10 20 10C17.4023 10 15.2955 12.06 15.2955 14.6V15H11.8182C11.3656 15 11 15.3575 11 15.8V29.2C11 29.6425 11.3656 30 11.8182 30H28.1818C28.6344 30 29 29.6425 29 29.2V15.8C29 15.3575 28.6344 15 28.1818 15ZM17.1364 14.6C17.1364 13.0525 18.4173 11.8 20 11.8C21.5827 11.8 22.8636 13.0525 22.8636 14.6V15H17.1364V14.6ZM12.8409 28.2H27.1591V16.8H24.7045V19C24.7045 19.11 24.6125 19.2 24.5 19.2H23.0682C22.9557 19.2 22.8636 19.11 22.8636 19V16.8H17.1364V19C17.1364 19.11 17.0443 19.2 16.9318 19.2H15.5C15.3875 19.2 15.2955 19.11 15.2955 19V16.8H12.8409V28.2Z" fill="#A77366"/>
</svg>
