<svg width="40" height="40" viewBox="0 0 40 40" fill="none" xmlns="http://www.w3.org/2000/svg">
<path d="M20 0C31.0457 0 40 8.9543 40 20C40 31.0457 31.0457 40 20 40C8.9543 40 0 31.0457 0 20C0 8.9543 8.9543 0 20 0Z" fill="#E9D2C2"/>
<rect opacity="0.01" x="8" y="8" width="24" height="24" fill="white" fill-opacity="0.01"/>
<path fill-rule="evenodd" clip-rule="evenodd" d="M22.0592 29.6001H18.115L17.1076 28.5928C17.1076 28.5928 17.1073 28.5999 17.1079 28.6133C17.105 28.5468 17.0607 27.9531 16.4235 27.5768C16.1816 27.4339 15.8327 27.3584 15.4145 27.3584C14.8245 27.3584 14.3069 27.5082 14.3019 27.5097L13.1651 27.0977L10.8067 23.4928L11.2877 22.0013C11.2877 22.0013 11.2793 22.004 11.2642 22.0108C11.3405 21.9765 12.0085 21.6426 11.9844 20.5046C11.9739 20.0046 11.8193 19.5922 11.525 19.279C11.2889 19.0277 11.0415 18.9236 11.0391 18.9226C11.0495 18.9269 11.0552 18.9288 11.0552 18.9288L10.5547 17.4454L13.279 13.1438L14.6733 12.8345L14.6679 12.8254C14.8143 12.9165 15.2882 13.1473 15.7159 13.1473H15.716C15.8851 13.1473 16.0166 13.1174 16.1301 13.0412C16.751 12.6242 17.0728 11.5078 17.125 11.2309L18.1149 10.4131H21.9778L22.9851 11.4204C22.9851 11.4204 22.9853 11.4153 22.985 11.4056C22.9862 11.4441 23.025 12.3558 23.9221 12.8981C24.1867 13.0581 24.448 13.1358 24.7208 13.1358C25.1555 13.1358 25.4753 12.931 25.4784 12.929C25.4692 12.935 25.4645 12.9385 25.4645 12.9385L26.9096 13.2471L29.4713 17.5499L28.97 19.0044C28.97 19.0044 28.9749 19.0026 28.984 18.9988C28.9814 18.9999 28.7198 19.1129 28.4745 19.372C28.1736 19.6899 28.0273 20.0801 28.0273 20.5649C28.0273 21.071 28.1615 21.463 28.4262 21.7297C28.5655 21.8701 28.7137 21.9423 28.7148 21.9426L29.2324 23.4712L26.752 27.0767L25.4683 27.405L25.4778 27.4097C25.4733 27.4076 25.1141 27.239 24.6678 27.239C24.4193 27.239 24.1908 27.2925 23.9886 27.3978C23.3896 27.71 23.1057 28.5093 23.0468 28.791L23.0483 28.7838L22.0592 29.6001ZM16.2455 20.0193C16.2455 22.0952 17.9344 23.784 20.0103 23.784C22.0862 23.784 23.775 22.0952 23.775 20.0193C23.775 17.9434 22.0862 16.2546 20.0103 16.2546C17.9344 16.2546 16.2455 17.9434 16.2455 20.0193ZM18.2602 20.0193C18.2602 19.0543 19.0453 18.2692 20.0103 18.2692C20.9753 18.2692 21.7604 19.0543 21.7604 20.0193C21.7604 20.9843 20.9753 21.7694 20.0103 21.7694C19.0453 21.7694 18.2602 20.9843 18.2602 20.0193ZM21.3306 27.5855H18.9207C18.6945 26.9854 18.2494 26.3154 17.448 25.842C16.8881 25.5114 16.2039 25.3437 15.4145 25.3437C15.0664 25.3437 14.7432 25.3763 14.4736 25.4177L13.0128 23.1847C13.0353 23.1614 13.0579 23.1371 13.0805 23.1124C13.5148 22.6357 14.0266 21.7885 13.9986 20.4614C13.9704 19.1276 13.3796 18.273 12.8889 17.7914L12.887 17.7896C12.8522 17.7554 12.8174 17.7213 12.7828 17.6899L14.512 14.9567C14.8573 15.0733 15.2731 15.1619 15.7158 15.1619H15.716C16.2877 15.1619 16.805 15.0148 17.2534 14.7136C18.1375 14.1198 18.6252 13.1358 18.8758 12.4277H21.1458C21.1655 12.49 21.1874 12.554 21.2118 12.6194C21.5247 13.4591 22.1016 14.1517 22.8799 14.6222C23.4597 14.9728 24.0791 15.1505 24.7209 15.1505C25.058 15.1505 25.3633 15.1002 25.6261 15.0296L27.2497 17.7566C27.2024 17.7986 27.1547 17.8429 27.1071 17.8897C26.3911 18.5928 26.0126 19.5179 26.0126 20.5649C26.0126 21.8813 26.5475 22.6967 26.9962 23.1488L27.0036 23.1563L25.5169 25.3174C25.2696 25.2638 24.9812 25.2244 24.6678 25.2244C24.0918 25.2244 23.5501 25.3545 23.0575 25.6112C22.3836 25.9624 21.8259 26.5586 21.4446 27.3352C21.4025 27.4211 21.3646 27.505 21.3306 27.5855Z" fill="#A77366"/>
</svg>
