<svg width="40" height="40" viewBox="0 0 40 40" fill="none" xmlns="http://www.w3.org/2000/svg">
<path d="M20 0C31.0457 0 40 8.9543 40 20C40 31.0457 31.0457 40 20 40C8.9543 40 0 31.0457 0 20C0 8.9543 8.9543 0 20 0Z" fill="#E9D2C2"/>
<rect opacity="0.01" x="8" y="8" width="24" height="24" fill="white" fill-opacity="0.01"/>
<path fill-rule="evenodd" clip-rule="evenodd" d="M27.2 12H12.8C11.2025 12 10 13.5031 10 15.25V16.2443C10 16.2478 10 16.2513 10 16.2548V24.75C10 26.4969 11.2025 28 12.8 28H27.2C28.7975 28 30 26.4969 30 24.75V16.2549C30 16.2514 30 16.2478 30 16.2443V15.25C30 13.5031 28.7975 12 27.2 12ZM28 15.7553V15.25C28 14.5219 27.5825 14 27.2 14H12.8C12.4175 14 12 14.5219 12 15.25V15.7553L20 21.796L28 15.7553ZM12 18.2695V24.75C12 25.4781 12.4175 26 12.8 26H27.2C27.5825 26 28 25.4781 28 24.75V18.2695L20.6585 23.8776C20.3129 24.18 19.8111 24.2052 19.4394 23.9532L19.3415 23.8776L12 18.2695Z" fill="#A77366"/>
</svg>
