<svg width="40" height="40" viewBox="0 0 40 40" fill="none" xmlns="http://www.w3.org/2000/svg">
<path d="M20 0C31.0457 0 40 8.9543 40 20C40 31.0457 31.0457 40 20 40C8.9543 40 0 31.0457 0 20C0 8.9543 8.9543 0 20 0Z" fill="#E9D2C2"/>
<path fill-rule="evenodd" clip-rule="evenodd" d="M25.9964 9.88338C25.9386 9.38604 25.516 9 25.0031 9C24.4508 9 24.0031 9.44772 24.0031 10L24.003 11H21V10L20.9933 9.88338C20.9355 9.38604 20.5128 9 20 9C19.4477 9 19 9.44772 19 10V11H16.003L16.0031 10L15.9964 9.88338C15.9386 9.38604 15.516 9 15.0031 9C14.4508 9 14.0031 9.44772 14.0031 10L14.003 11H12.8L12.6547 11.0056C11.7426 11.0766 11 11.8091 11 12.7391V26.7826L11.0054 26.967C11.1065 28.6744 12.6033 30 14.4 30H25.6L25.7913 29.995C27.5652 29.9015 29 28.5161 29 26.7826V12.7391L28.9939 12.594C28.9173 11.6861 28.1284 11 27.2 11H26.003L26.0031 10L25.9964 9.88338ZM13 13H14.003L14.0031 14L14.0099 14.1166C14.0676 14.614 14.4903 15 15.0031 15C15.5554 15 16.0031 14.5523 16.0031 14L16.003 13H19V14L19.0067 14.1166C19.0645 14.614 19.4872 15 20 15C20.5523 15 21 14.5523 21 14V13H24.003L24.0031 14L24.0099 14.1166C24.0676 14.614 24.4903 15 25.0031 15C25.5554 15 26.0031 14.5523 26.0031 14L26.003 13H27V26.7826L26.993 26.904C26.9231 27.5047 26.3407 28 25.6 28H14.4L14.2541 27.9935L14.113 27.9745C13.467 27.8577 13 27.3548 13 26.7826V13ZM23 22C23.5523 22 24 22.4477 24 23C24 23.5128 23.614 23.9355 23.1166 23.9933L23 24H17C16.4477 24 16 23.5523 16 23C16 22.4872 16.386 22.0645 16.8834 22.0067L17 22H23ZM24 19C24 18.4477 23.5523 18 23 18H17L16.8834 18.0067C16.386 18.0645 16 18.4872 16 19C16 19.5523 16.4477 20 17 20H23L23.1166 19.9933C23.614 19.9355 24 19.5128 24 19Z" fill="#A77366"/>
</svg>
