<svg width="40" height="40" viewBox="0 0 40 40" fill="none" xmlns="http://www.w3.org/2000/svg">
<path d="M20 0C31.0457 0 40 8.9543 40 20C40 31.0457 31.0457 40 20 40C8.9543 40 0 31.0457 0 20C0 8.9543 8.9543 0 20 0Z" fill="#E9D2C2"/>
<path d="M22.1331 19.3333C22.0388 19.3333 21.9454 19.3369 21.8525 19.3428C21.7828 19.3473 21.7174 19.3782 21.6677 19.4276C21.3115 19.7796 20.9334 20.1056 20.5445 20.4067C20.4306 20.495 20.4951 20.6776 20.6391 20.6705C20.8586 20.66 21.084 20.6708 21.3133 20.7064C22.8164 20.9394 23.9905 22.1899 24.1205 23.7056C24.2897 25.6791 22.738 27.3333 20.7998 27.3333C19.0164 27.3333 17.5601 25.9327 17.4708 24.1716C17.4687 24.1145 17.4665 24.0575 17.4665 24V22.2781V20.2404C18.4712 19.6572 19.5176 18.9193 20.4151 18.0136C21.7757 16.6404 22.7933 14.8813 22.7998 12.6879C22.8041 11.2104 21.6051 9.99956 20.1275 10C19.2014 10.0003 18.4185 10.072 17.762 10.1822C16.0508 10.4692 14.7998 11.9533 14.7998 13.6883V17.6705C14.7998 17.7877 14.9296 17.8599 15.0278 17.7959C15.8623 17.2521 16.7337 16.5773 17.4288 15.7929C17.4533 15.7655 17.4665 15.7298 17.4665 15.693V14C17.4665 13.8049 17.5094 13.6201 17.5847 13.4532C17.8065 12.9612 18.317 12.6273 18.901 12.6704C19.6137 12.7231 20.1462 13.3542 20.1324 14.0689C20.1241 14.5028 20.0368 14.9206 19.8894 15.321C19.4588 16.4911 18.5082 17.5108 17.4665 18.3369C16.5499 19.0637 15.564 19.6406 14.7998 20.0385V21.5292V23.3333V24V24.6667C14.7998 27.6121 17.1877 30 20.1331 30H20.7998C21.0253 30 21.2475 29.9865 21.4665 29.9622C24.4663 29.6305 26.7998 27.0883 26.7998 24C26.7998 21.4227 24.7105 19.3333 22.1331 19.3333Z" fill="#A77366"/>
</svg>
