<svg width="40" height="40" viewBox="0 0 40 40" fill="none" xmlns="http://www.w3.org/2000/svg">
<path d="M20 0C31.0457 0 40 8.9543 40 20C40 31.0457 31.0457 40 20 40C8.9543 40 0 31.0457 0 20C0 8.9543 8.9543 0 20 0Z" fill="#E9D2C2"/>
<path fill-rule="evenodd" clip-rule="evenodd" d="M18.5455 11C18.5455 10.4477 18.0977 10 17.5455 10H11.8182L11.6691 10.006C10.7347 10.0819 10 10.8642 10 11.8182V28.1818L10.006 28.3309C10.0819 29.2653 10.8642 30 11.8182 30H17.5455L17.6621 29.9933C18.1594 29.9355 18.5455 29.5128 18.5455 29L18.5387 28.8834C18.481 28.386 18.0583 28 17.5455 28H12V12H17.5455L17.6621 11.9933C18.1594 11.9355 18.5455 11.5128 18.5455 11ZM23.9987 14.9973C24.3592 14.6369 24.9264 14.6093 25.3187 14.9143L25.4129 14.9975L29.7072 19.293C30.0676 19.6535 30.0953 20.2206 29.7904 20.6128L29.7867 20.6169C29.7563 20.6561 29.723 20.6929 29.6872 20.7271L25.4129 25.0025C25.0224 25.393 24.3892 25.3931 23.9987 25.0027C23.6381 24.6422 23.6103 24.075 23.9153 23.6827L23.9985 23.5884L26.5814 21.0034H17.5455C16.9932 21.0034 16.5455 20.5557 16.5455 20.0034C16.5455 19.4906 16.9315 19.0679 17.4288 19.0101L17.5455 19.0034H26.5897L23.9985 16.4116C23.638 16.051 23.6104 15.4838 23.9155 15.0915L23.9987 14.9973Z" fill="#A77366"/>
</svg>
