<svg width="14" height="14" viewBox="0 0 14 14" fill="none" xmlns="http://www.w3.org/2000/svg">
<path fill-rule="evenodd" clip-rule="evenodd" d="M11.652 10.6179L13.7827 12.74C14.0712 13.0274 14.0712 13.4989 13.7901 13.7863C13.6421 13.9263 13.4572 14 13.2648 14C13.0725 14 12.8875 13.9337 12.7395 13.7863L10.6015 11.6568C9.48437 12.5337 8.07873 13.0568 6.55472 13.0568C2.93705 13.0568 0 10.1316 0 6.52842C0 2.92526 2.93705 0 6.55472 0C10.1724 0 13.1094 2.93263 13.1094 6.52842C13.1099 8.01789 12.5952 9.46206 11.652 10.6179ZM9.87571 6.55644C10.2506 6.46195 10.4779 6.08146 10.3834 5.70659C10.0217 4.27138 8.85866 3.16321 7.40432 2.874C7.02515 2.7986 6.65664 3.04486 6.58124 3.42403C6.50584 3.80321 6.75209 4.17171 7.13127 4.24712C8.05475 4.43076 8.79608 5.13714 9.02585 6.04876C9.12034 6.42363 9.50084 6.65093 9.87571 6.55644Z" fill="#D5AC94"/>
</svg>
