<svg width="40" height="40" viewBox="0 0 40 40" fill="none" xmlns="http://www.w3.org/2000/svg">
<path d="M20 0C31.0457 0 40 8.9543 40 20C40 31.0457 31.0457 40 20 40C8.9543 40 0 31.0457 0 20C0 8.9543 8.9543 0 20 0Z" fill="white"/>
<path fill-rule="evenodd" clip-rule="evenodd" d="M23.7929 12.2929C24.1534 11.9324 24.7206 11.9047 25.1129 12.2097L25.2071 12.2929L29.7071 16.7929C29.8036 16.8894 29.8762 17.0006 29.925 17.1194C29.9733 17.2367 30 17.3652 30 17.5C30 17.6357 29.973 17.765 29.924 17.883C29.8905 17.9639 29.846 18.0413 29.7903 18.1129L29.7897 18.1136C29.7641 18.1465 29.7365 18.1777 29.7071 18.2071L25.2071 22.7071C24.8166 23.0976 24.1834 23.0976 23.7929 22.7071C23.4324 22.3466 23.4047 21.7794 23.7097 21.3871L23.7929 21.2929L26.5852 18.5H23.7501C20.1016 18.5003 16.915 20.9679 16.0017 24.5003C15.8635 25.035 15.3179 25.3564 14.7832 25.2181C14.2485 25.0799 13.9271 24.5344 14.0654 23.9997C15.1831 19.6766 19.025 16.6294 23.4658 16.504L23.75 16.5H26.5852L23.7929 13.7071C23.4324 13.3466 23.4047 12.7794 23.7097 12.3871L23.7929 12.2929ZM11 15C11.5128 15 11.9355 15.386 11.9933 15.8834L12 16V27H26C26.5128 27 26.9355 27.386 26.9933 27.8834L27 28C27 28.5128 26.614 28.9355 26.1166 28.9933L26 29H11.75C10.8318 29 10.0788 28.2929 10.0058 27.3935L10 27.25V16C10 15.4477 10.4477 15 11 15Z" fill="#A77366"/>
</svg>
