<svg width="40" height="40" viewBox="0 0 40 40" fill="none" xmlns="http://www.w3.org/2000/svg">
<path d="M20 0C31.0457 0 40 8.9543 40 20C40 31.0457 31.0457 40 20 40C8.9543 40 0 31.0457 0 20C0 8.9543 8.9543 0 20 0Z" fill="#E9D2C2"/>
<path fill-rule="evenodd" clip-rule="evenodd" d="M10 20.0703C10 14.5475 14.4772 10.0703 20 10.0703C25.5228 10.0703 30 14.5475 30 20.0703C30 23.0147 28.7275 25.6618 26.7024 27.4918C26.6933 27.5004 26.6839 27.5088 26.6744 27.5171C24.9043 29.1047 22.5649 30.0703 20 30.0703C17.4353 30.0703 15.096 29.1048 13.326 27.5174C13.3162 27.5089 13.3066 27.5003 13.2972 27.4915C11.2723 25.6615 10 23.0145 10 20.0703ZM15.2818 26.5316C16.6046 27.4991 18.2356 28.0703 20 28.0703C21.7644 28.0703 23.3954 27.4991 24.7182 26.5316C23.6527 25.0036 21.8978 24.071 20.0022 24.0703C20.0015 24.0703 20.0007 24.0703 20 24.0703C19.9993 24.0703 19.9985 24.0703 19.9978 24.0703C18.1022 24.071 16.3473 25.0036 15.2818 26.5316ZM16.7499 22.7844C15.6017 23.3148 14.5906 24.1225 13.8164 25.1464C12.6814 23.7654 12 21.9974 12 20.0703C12 15.652 15.5817 12.0703 20 12.0703C24.4183 12.0703 28 15.652 28 20.0703C28 21.9974 27.3186 23.7654 26.1836 25.1464C25.4094 24.1225 24.3983 23.3148 23.2501 22.7844C24.1733 21.9178 24.75 20.6864 24.75 19.3203C24.75 16.697 22.6234 14.5703 20 14.5703C17.3766 14.5703 15.25 16.697 15.25 19.3203C15.25 20.6864 15.8267 21.9178 16.7499 22.7844Z" fill="#A77366"/>
</svg>
