<svg width="40" height="40" viewBox="0 0 40 40" fill="none" xmlns="http://www.w3.org/2000/svg">
<path d="M20 0C31.0457 0 40 8.9543 40 20C40 31.0457 31.0457 40 20 40C8.9543 40 0 31.0457 0 20C0 8.9543 8.9543 0 20 0Z" fill="white"/>
<rect opacity="0.01" x="8" y="8" width="24" height="24" fill="white" fill-opacity="0.01"/>
<path d="M18.7071 13.2929C19.0676 13.6534 19.0953 14.2206 18.7903 14.6129L18.7071 14.7071L14.415 19H28C28.5523 19 29 19.4477 29 20C29 20.5128 28.614 20.9355 28.1166 20.9933L28 21H14.415L18.7071 25.2929C19.0676 25.6534 19.0953 26.2206 18.7903 26.6129L18.7071 26.7071C18.3466 27.0676 17.7794 27.0953 17.3871 26.7903L17.2929 26.7071L11.2929 20.7071C11.2575 20.6717 11.2253 20.6343 11.1963 20.5953L11.1247 20.4841L11.0712 20.3713L11.0358 20.266L11.011 20.1485L11.004 20.0898L11 20L11.0028 19.9248L11.0202 19.7993L11.0497 19.6879L11.0937 19.5768L11.146 19.4793L11.2097 19.3871L11.2929 19.2929L17.2929 13.2929C17.6834 12.9024 18.3166 12.9024 18.7071 13.2929Z" fill="#A77366"/>
</svg>
