<svg width="40" height="40" viewBox="0 0 40 40" fill="none" xmlns="http://www.w3.org/2000/svg">
<path d="M20 0C31.0457 0 40 8.9543 40 20C40 31.0457 31.0457 40 20 40C8.9543 40 0 31.0457 0 20C0 8.9543 8.9543 0 20 0Z" fill="#E9D2C2"/>
<rect opacity="0.01" x="8" y="8" width="24" height="24" fill="white" fill-opacity="0.01"/>
<path fill-rule="evenodd" clip-rule="evenodd" d="M28 29H12C11.4477 29 11 28.5523 11 28V13C11 12.4477 11.4477 12 12 12H15C15 11.4477 15.4477 11 16 11C16.5523 11 17 11.4477 17 12H23C23 11.4477 23.4477 11 24 11C24.5523 11 25 11.4477 25 12H28C28.5523 12 29 12.4477 29 13V28C29 28.5523 28.5523 29 28 29ZM15 14H13V17H27V14H25C25 14.5523 24.5523 15 24 15C23.4477 15 23 14.5523 23 14H17C17 14.5523 16.5523 15 16 15C15.4477 15 15 14.5523 15 14ZM13 19H27V27H13V19Z" fill="#A77366"/>
</svg>
