<svg width="61" height="61" viewBox="0 0 61 61" fill="none" xmlns="http://www.w3.org/2000/svg">
<path fill-rule="evenodd" clip-rule="evenodd" d="M57.1792 13.1927C57.1822 13.2279 57.1841 13.2631 57.185 13.2983C57.1852 13.3052 57.1857 13.312 57.1862 13.3188C57.1869 13.327 57.1875 13.3353 57.1875 13.3438V45.75C57.1849 47.8546 55.3482 49.5601 53.0817 49.5625H7.91827C5.65179 49.5601 3.81509 47.8546 3.8125 45.75V13.3438C3.8125 13.3353 3.81314 13.3271 3.81378 13.3188C3.8143 13.312 3.81483 13.3052 3.815 13.2983C3.81583 13.2631 3.81776 13.2279 3.82076 13.1927C3.8231 13.1641 3.82614 13.1356 3.82991 13.1073C3.8343 13.0743 3.83981 13.0416 3.84607 13.0088C3.85171 12.9793 3.85785 12.95 3.86487 12.9209C3.87251 12.8899 3.88128 12.8591 3.89056 12.8284C3.89945 12.799 3.90861 12.7699 3.91887 12.7412C3.92965 12.7111 3.94168 12.6816 3.95408 12.6521C3.96586 12.6238 3.97801 12.5958 3.99117 12.5683C4.0052 12.5392 4.02036 12.5106 4.0359 12.4821C4.05069 12.4551 4.06585 12.4283 4.08188 12.402C4.09867 12.3749 4.11634 12.3481 4.13451 12.3216C4.15293 12.2947 4.17185 12.2684 4.19165 12.2426C4.21019 12.2182 4.22961 12.1943 4.24953 12.1705C4.27209 12.1438 4.2954 12.1179 4.31933 12.0924C4.32436 12.087 4.3291 12.0815 4.33383 12.0759L4.33383 12.0759L4.33384 12.0759C4.33971 12.0691 4.34558 12.0622 4.35203 12.0557C4.35729 12.0504 4.36285 12.0455 4.36842 12.0406C4.37335 12.0362 4.37827 12.0319 4.38298 12.0273C4.40767 12.0034 4.4331 11.9803 4.45904 11.9576C4.4836 11.9362 4.50803 11.9151 4.53334 11.895C4.55764 11.8757 4.5827 11.8574 4.60801 11.8392C4.63646 11.8186 4.6649 11.7982 4.69434 11.7793C4.71543 11.7656 4.73728 11.7527 4.75907 11.7399L4.75907 11.7399L4.76902 11.7341C4.80034 11.7156 4.83166 11.6973 4.86374 11.6806C4.88609 11.669 4.909 11.6583 4.93199 11.6477L4.9438 11.6422L4.94624 11.641L4.94624 11.641C4.9775 11.6264 5.00867 11.6118 5.04055 11.5988C5.06579 11.5886 5.09159 11.5794 5.11739 11.5702L5.12988 11.5657L5.13549 11.5637C5.16532 11.5531 5.19505 11.5425 5.22524 11.5333C5.25406 11.5245 5.28339 11.5171 5.31277 11.5096L5.31277 11.5096L5.32159 11.5073L5.32539 11.5063L5.32539 11.5063C5.35618 11.4985 5.38676 11.4908 5.41782 11.4843C5.44854 11.4779 5.47983 11.4729 5.51115 11.4679L5.5153 11.4672C5.54963 11.4617 5.58384 11.4565 5.6183 11.4526C5.649 11.4492 5.67994 11.4469 5.71114 11.4447C5.74886 11.4421 5.7867 11.4401 5.82454 11.4394C5.83093 11.4393 5.83721 11.4389 5.84348 11.4385L5.84348 11.4385C5.85074 11.438 5.85799 11.4375 5.86538 11.4375H55.1346C55.1427 11.4375 55.1506 11.438 55.1585 11.4386C55.165 11.439 55.1714 11.4394 55.178 11.4396C55.2139 11.4403 55.2498 11.4422 55.2856 11.4446C55.3185 11.4468 55.3512 11.4493 55.3837 11.4529C55.4164 11.4566 55.4489 11.4616 55.4813 11.4667C55.5158 11.4722 55.5501 11.4777 55.5839 11.4848C55.6122 11.4906 55.6402 11.4977 55.6683 11.5048L55.6751 11.5065L55.6825 11.5084L55.6826 11.5084L55.6826 11.5084C55.714 11.5164 55.7454 11.5244 55.7761 11.5338C55.8033 11.5421 55.8301 11.5516 55.8569 11.5611L55.8569 11.5611L55.867 11.5647L55.8774 11.5684C55.9054 11.5783 55.9333 11.5882 55.9606 11.5994C55.9889 11.6109 56.0165 11.6237 56.0443 11.6366L56.0538 11.6411L56.064 11.6458L56.064 11.6458L56.0641 11.6458C56.0886 11.6573 56.1131 11.6687 56.1371 11.6811C56.1682 11.6973 56.1985 11.715 56.2288 11.7328L56.2289 11.7329L56.2289 11.7329L56.2295 11.7332L56.2373 11.7378C56.2605 11.7514 56.2837 11.7651 56.3063 11.7797C56.3352 11.7984 56.3632 11.8184 56.3912 11.8387C56.4169 11.8572 56.4423 11.8757 56.467 11.8952C56.4921 11.9152 56.5164 11.9362 56.5406 11.9574C56.5666 11.9802 56.5923 12.0033 56.617 12.0274C56.6216 12.0318 56.6262 12.0359 56.6309 12.04C56.6367 12.0451 56.6425 12.0501 56.648 12.0557C56.6544 12.0623 56.6604 12.0692 56.6663 12.0761L56.6664 12.0762C56.671 12.0816 56.6757 12.0871 56.6807 12.0924C56.7046 12.1179 56.7279 12.1438 56.7505 12.1706C56.7704 12.1943 56.7898 12.2182 56.8083 12.2426C56.8281 12.2685 56.8471 12.2948 56.8655 12.3216C56.8836 12.3482 56.9013 12.3749 56.9181 12.402C56.9341 12.4283 56.9493 12.4551 56.9641 12.4821C56.9796 12.5106 56.9948 12.5392 57.0088 12.5683C57.022 12.5958 57.0341 12.6238 57.0459 12.6521C57.0583 12.6816 57.0703 12.7112 57.0811 12.7412C57.0914 12.7699 57.1005 12.799 57.1094 12.8284C57.1187 12.8591 57.1275 12.8899 57.1351 12.9209C57.1421 12.95 57.1483 12.9793 57.1539 13.0088C57.1602 13.0416 57.1657 13.0743 57.1701 13.1073C57.1738 13.1356 57.1768 13.1641 57.1792 13.1927ZM22.875 32.4063L7.625 19.0625V45.75L22.875 32.4063ZM11.4375 45.75L26.0891 34.3126L29.1337 36.6893C29.9067 37.2926 31.0931 37.2926 31.8661 36.6893L34.9109 34.3125L49.5625 45.75H11.4375ZM53.373 19.0625L38.125 32.4055L53.375 45.75L53.373 19.0625Z" fill="#D5AC94"/>
</svg>
