<svg width="95" height="95" viewBox="0 0 95 95" fill="none" xmlns="http://www.w3.org/2000/svg">
<path d="M47.5 0C73.7335 0 95 21.2665 95 47.5C95 73.7335 73.7335 95 47.5 95C21.2665 95 0 73.7335 0 47.5C0 21.2665 21.2665 0 47.5 0Z" fill="#F2E4D9"/>
<rect opacity="0.01" x="19" y="19" width="57" height="57" fill="white" fill-opacity="0.01"/>
<path fill-rule="evenodd" clip-rule="evenodd" d="M64.1692 57V43.9375C64.1692 36.575 58.5647 30.6375 51.2721 28.975V27.3125C51.2721 25.4125 49.5118 23.75 47.5 23.75C45.4882 23.75 43.7279 25.4125 43.7279 27.3125V28.975C36.4353 30.6375 30.8554 36.575 30.8554 43.9375V57L26.125 61.75V64.125H68.875V61.75L64.1692 57ZM47.5 71.25C49.975 71.25 52 69.1125 52 66.5H43C43 69.1125 45.025 71.25 47.5 71.25ZM35.5665 59.375H59.3892V43.9375C59.3892 38 54.375 33.25 47.5 33.25C40.625 33.25 35.5665 38 35.5665 43.9375V59.375Z" fill="#3A2228"/>
</svg>
