<svg width="705" height="705" viewBox="0 0 705 705" fill="none" xmlns="http://www.w3.org/2000/svg">
<rect width="705" height="705" fill="white" fill-opacity="0.01"/>
<path fill-rule="evenodd" clip-rule="evenodd" d="M352.5 669.75C352.5 669.75 506.863 647.45 582.496 589.076C658.129 530.703 741.654 412.267 675.676 383.623C503.991 312.997 352.409 489.186 352.409 489.186L352.5 669.75Z" fill="url(#paint0_linear_111_13732)"/>
<path d="M325.517 640.877C262.315 568.982 164.959 474.825 133.358 387.034C70.4988 212.329 164.54 42.5422 352.468 42.5422C540.357 42.5422 634.435 212.329 571.539 387.035C539.977 474.826 442.619 568.983 379.38 640.878C354.563 669.124 350.371 669.124 325.517 640.877V640.877Z" fill="#CA987E"/>
<path fill-rule="evenodd" clip-rule="evenodd" d="M352.468 439.374C442.125 439.374 515.237 366.26 515.237 276.601C515.237 186.904 442.125 113.789 352.468 113.789C262.811 113.789 189.661 186.904 189.661 276.601C189.66 366.259 262.811 439.374 352.468 439.374Z" fill="#FBF6F1"/>
<path d="M278.631 280.413L293.688 302.409L294.794 330.58L295.29 348.192C295.786 354.138 300.627 357.226 306.192 356.083L324.031 351.7L352.468 344.723L380.905 351.7L398.744 356.083C404.309 357.226 409.151 354.139 409.646 348.192L410.142 330.58L411.248 302.409L427.487 278.698L437.512 263.908C440.409 259.219 438.922 253.844 433.166 251.519L415.861 245.457L388.3 235.775L370.003 213.818L358.492 200.056C356.815 198.189 354.679 197.083 352.469 196.854C350.258 197.082 348.123 198.187 346.447 200.056L334.935 213.818L316.639 235.775L289.041 245.457L271.772 251.519C266.016 253.844 264.529 259.219 267.426 263.908L278.631 280.413Z" fill="#FFFAE6"/>
<path d="M457.295 401.139C426.952 472.843 356.241 547.94 298.643 610.99C299.329 611.753 300.016 612.477 300.664 613.239C309.356 622.769 317.703 631.994 325.518 640.875C350.372 669.123 354.565 669.123 379.38 640.875C387.233 631.993 395.582 622.768 404.234 613.239C465.721 545.766 543.865 463.96 571.539 387.033C634.359 212.483 540.548 42.809 352.963 42.5422H352.467H351.97C330.814 42.5809 310.878 44.7538 292.199 48.8315C355.401 59.924 404.88 92.3266 437.357 137.652C484.091 166.242 515.235 217.781 515.235 276.601C515.236 326.576 492.745 371.292 457.295 401.139Z" fill="#A77366"/>
<path d="M554.866 133.41C510.394 70.1176 438.498 35.25 352.436 35.25C305.844 35.25 263.6 45.3075 226.865 65.1289C191.877 84.0166 163.519 110.788 142.55 144.695C139.642 149.39 141.096 155.553 145.805 158.46C150.5 161.368 156.663 159.914 159.57 155.219C199.413 90.7527 267.908 55.2582 352.436 55.2582C431.789 55.2582 497.869 87.0979 538.499 144.922C583.851 209.468 591.868 296.45 560.468 383.566C535.671 452.514 468.777 525.544 409.766 589.984C406.258 593.812 374.765 628.573 371.631 632.135C367.002 637.403 356.144 649.742 352.423 649.742C348.701 649.742 298.507 593.719 294.959 589.837C236.002 525.451 169.174 452.474 144.351 383.566C121.128 319.033 119.594 252.339 140.042 195.782C141.91 190.58 139.229 184.845 134.027 182.964C128.838 181.096 123.102 183.778 121.221 188.98C99.199 249.911 100.733 321.421 125.53 390.342C151.447 462.278 218.581 536.055 278.352 601.322L296.627 621.33C304.15 629.587 311.353 637.59 318.169 645.34C331.161 660.093 340.551 669.75 352.423 669.75H352.436C364.321 669.75 373.698 660.079 386.663 645.34C393.493 637.577 400.696 629.587 408.219 621.33L426.506 601.322C486.304 536.029 553.425 462.278 579.302 390.342C595.869 344.337 602.258 296.424 597.763 251.792C593.362 208.014 578.529 167.091 554.866 133.41Z" fill="#3A2228"/>
<path fill-rule="evenodd" clip-rule="evenodd" d="M352.436 105.919C447.035 105.919 524 182.844 524 277.416C524 371.948 447.035 448.873 352.436 448.873C257.811 448.873 180.819 371.948 180.819 277.416C180.819 182.844 257.811 105.919 352.436 105.919ZM352.436 125.927C268.842 125.927 200.828 193.888 200.828 277.416C200.828 360.917 268.842 428.865 352.436 428.865C436.004 428.865 503.992 360.917 503.992 277.416C503.992 193.888 436.004 125.927 352.436 125.927Z" fill="#3A2228"/>
<defs>
<linearGradient id="paint0_linear_111_13732" x1="511.914" y1="245.371" x2="231.877" y2="563.724" gradientUnits="userSpaceOnUse">
<stop stop-color="#EEEEEE" stop-opacity="0.01"/>
<stop offset="1" stop-color="#3A2228" stop-opacity="0.272333"/>
</linearGradient>
</defs>
</svg>
