<svg width="24" height="24" viewBox="0 0 24 24" fill="none" xmlns="http://www.w3.org/2000/svg">
<rect opacity="0.01" width="24" height="24" fill="white" fill-opacity="0.01"/>
<path fill-rule="evenodd" clip-rule="evenodd" d="M8.85667 7.82099C7.15258 8.28494 5.77001 9.58923 5.15 11.3178C7.25667 10.2408 10.7567 11.1639 10.7567 15.0384C10.7567 17.7449 9.03 19.4863 6.27667 19.4863C3.52333 19.4863 1.75 17.3882 1.75 14.1222C1.75 9.94704 4.13667 6.75097 8.13667 5.57604C9.83667 5.02354 10.7767 7.17758 8.85667 7.82099ZM19.85 7.82099C18.1459 8.28494 16.7633 9.58923 16.1433 11.3178C18.27 10.2338 21.75 11.1779 21.75 15.0384C21.75 17.7449 20.0167 19.4863 17.27 19.4863C14.5233 19.4863 12.7433 17.3882 12.7433 14.1292C12.7433 9.94704 15.13 6.75796 19.13 5.57604C20.85 5.02354 21.75 7.18457 19.85 7.82099Z" fill="#DFBFAB"/>
</svg>
