<svg width="16" height="16" viewBox="0 0 16 16" fill="none" xmlns="http://www.w3.org/2000/svg">
<rect opacity="0.01" width="16" height="16" fill="white" fill-opacity="0.01"/>
<path fill-rule="evenodd" clip-rule="evenodd" d="M2 8.00025C2 4.69212 4.69144 2 8.00025 2C11.3086 2 14 4.6921 14 8.00025C14 11.3089 11.3086 14 8.00025 14C4.69145 14 2 11.3089 2 8.00025ZM8.22602 7.95986L10.7755 9.61463L10.7755 9.61461C11.0591 9.79908 11.1406 10.1785 10.9556 10.4632C10.8389 10.6443 10.6418 10.7424 10.4408 10.7424C10.3268 10.7424 10.2112 10.7104 10.1072 10.6433L7 8.6256V4.61345C7 4.27481 7.27414 4 7.61328 4C7.95242 4 8.22602 4.27481 8.22602 4.61345V7.95986Z" fill="#D5AC94"/>
</svg>
