<svg width="54" height="54" viewBox="0 0 54 54" fill="none" xmlns="http://www.w3.org/2000/svg">
<path d="M48.3296 35.1079L37.2459 30.3578C36.0701 29.8517 34.7179 29.9759 33.6541 30.6878L27.7279 34.6381C24.1061 32.8765 21.1746 29.958 19.3971 26.344L19.3975 26.3435L23.3339 20.3287C24.0299 19.268 24.1473 17.9289 23.6464 16.7634L18.8919 5.67035C18.2272 4.12373 16.6225 3.20032 14.9513 3.40265C8.33712 4.25307 3.38176 9.88058 3.375 16.5492C3.375 35.3388 18.6613 50.625 37.4509 50.625C44.1196 50.6182 49.7472 45.6628 50.5975 39.0485C50.7993 37.3773 49.8759 35.773 48.3296 35.1079Z" fill="#D5AC94"/>
</svg>
