<svg width="387" height="341" viewBox="0 0 387 341" fill="none" xmlns="http://www.w3.org/2000/svg">
<path d="M381.331 132.362V155.038L335.979 177.714V109.686L381.331 132.362Z" fill="#A0A496"/>
<path d="M28.3447 98.3485L5.66895 109.686V155.038L358.655 233.874V98.3485H28.3447Z" fill="#BABEB4"/>
<path d="M381.331 109.686V132.362H358.655L335.979 98.3485L381.331 109.686Z" fill="#D5D7D1"/>
<path d="M381.331 267.888L335.979 245.212V324.577L358.655 335.915H381.331V313.239L369.993 301.901L381.331 290.564V267.888Z" fill="#A0A496"/>
<path d="M381.331 87.0106V109.686H358.655L335.979 98.3478L358.655 87.0106H381.331Z" fill="#A0A496"/>
<path d="M232.208 87.0106H5.66895V109.686H97.4454C114.12 109.686 130.56 113.564 145.473 121.024C152.925 124.751 160.771 127.585 168.829 129.49C176.886 131.387 185.163 132.362 193.5 132.362H358.655V98.3485L232.208 87.0106Z" fill="#D5D7D1"/>
<path d="M381.331 290.564V313.239H358.655L335.979 301.901L358.655 290.564H381.331Z" fill="#A0A496"/>
<path d="M358.655 335.915H5.66895V267.888L358.655 189.052V335.915Z" fill="#D5D7D1"/>
<path d="M358.655 290.564V313.239H106.334C100.075 313.239 94.9961 308.168 94.9961 301.901C94.9961 295.643 100.075 290.564 106.334 290.564H358.655Z" fill="#BABEB4"/>
<path d="M358.655 87.0106V109.686H254.883C242.358 109.686 232.207 99.5352 232.207 87.0106H358.655Z" fill="#BABEB4"/>
<path d="M381.331 155.038V267.888H358.655L313.304 211.463L358.655 155.038L381.331 155.038Z" fill="#D5AC94"/>
<path d="M5.66895 155.038H358.655V267.888H5.66895V155.038Z" fill="#DFBFAB"/>
<circle cx="193.5" cy="18.981" r="11.3379" fill="#6B705C"/>
<path fill-rule="evenodd" clip-rule="evenodd" d="M279.91 80.1625H381.331C384.463 80.1625 387 82.7007 387 85.8315V334.738C387 337.869 384.463 340.407 381.331 340.407H5.66895C2.53818 340.407 0 337.869 0 334.738V85.8315C0 82.7007 2.53818 80.1625 5.66895 80.1625H107.09C107.09 80.1625 181.475 5.77842 181.48 5.78371C184.56 2.70434 188.811 0.797302 193.5 0.797302C198.189 0.797302 202.44 2.70509 205.526 5.77842L279.91 80.1625ZM254.886 102.838H375.662V91.5004H238.854C241.194 98.0983 247.496 102.838 254.886 102.838ZM193.5 12.1352C196.626 12.1352 199.169 14.6779 199.169 17.8041C199.169 20.9304 196.626 23.4731 193.5 23.4731C190.374 23.4731 187.831 20.9304 187.831 17.8041C187.831 14.6779 190.374 12.1352 193.5 12.1352ZM193.501 34.8109C186.745 34.8109 180.898 30.851 178.156 25.1314L123.125 80.1625H263.876L208.845 25.1322C206.103 30.8518 200.256 34.8109 193.501 34.8109ZM227.112 91.5004C229.745 104.423 241.197 114.176 254.886 114.176H375.662V125.514H193.5C177.79 125.514 162.059 121.801 148.007 114.775C132.39 106.966 114.906 102.838 97.4439 102.838H63.9555C60.8248 102.838 58.2866 105.377 58.2866 108.507C58.2866 111.638 60.8248 114.176 63.9555 114.176H97.4439C113.154 114.176 128.885 117.89 142.937 124.915C158.555 132.724 176.039 136.852 193.5 136.852H375.662V148.19H11.3379V114.176H41.2798C44.4105 114.176 46.9487 111.638 46.9487 108.507C46.9487 105.377 44.4105 102.838 41.2798 102.838H11.3379V91.5004H227.112ZM375.662 261.042V159.528H11.3379V261.042H375.662ZM11.3379 329.069V272.379H375.662V283.717H106.334C96.9556 283.717 89.3267 291.346 89.3267 300.724C89.3267 310.102 96.9556 317.731 106.334 317.731H375.662V329.069H11.3379ZM106.334 306.393H375.663V295.055H106.334C103.209 295.055 100.665 297.598 100.665 300.724C100.665 303.85 103.209 306.393 106.334 306.393Z" fill="#3A2228"/>
<path fill-rule="evenodd" clip-rule="evenodd" d="M207.491 210.306C207.491 194.884 220.036 182.339 235.458 182.339C250.879 182.339 263.424 194.884 263.424 210.306C263.424 225.727 250.879 238.272 235.458 238.272C220.036 238.272 207.491 225.727 207.491 210.306ZM218.829 210.306C218.829 219.475 226.288 226.934 235.458 226.934C244.627 226.934 252.086 219.475 252.086 210.306C252.086 201.136 244.627 193.677 235.458 193.677C226.288 193.677 218.829 201.136 218.829 210.306Z" fill="#3A2228"/>
<path d="M317.732 187.59C317.124 184.62 314.587 182.427 311.561 182.256C308.549 182.089 305.768 183.981 304.832 186.863C304.811 186.928 304.79 186.994 304.772 187.06L296.818 214.964L288.568 187.002C288.549 186.936 288.527 186.869 288.505 186.804C287.542 183.929 284.756 182.064 281.728 182.263C278.702 182.465 276.187 184.686 275.6 187.731L267.729 231.34C267.174 234.421 269.22 237.37 272.301 237.926C275.38 238.48 278.332 236.436 278.887 233.354L283.265 209.094L290.499 233.612C290.518 233.68 290.54 233.747 290.562 233.814C291.479 236.541 294.02 238.367 296.895 238.366C299.817 238.351 302.357 236.496 303.248 233.749C303.27 233.684 303.29 233.619 303.309 233.552L310.292 209.055L314.946 233.411C315.533 236.488 318.508 238.502 321.578 237.916C324.653 237.328 326.67 234.359 326.081 231.284L317.732 187.59Z" fill="#3A2228"/>
<path d="M77.2129 182.643C74.1335 182.089 71.1827 184.133 70.6271 187.215L66.2492 211.474L59.0156 186.957C58.9959 186.89 58.9748 186.823 58.9529 186.757C58.0375 184.029 55.4956 182.203 52.6203 182.203C49.6966 182.218 47.1569 184.074 46.2658 186.821C46.2446 186.885 46.2249 186.951 46.2061 187.016L39.2234 211.512L34.5688 187.157C33.9815 184.082 31.0133 182.065 27.9369 182.653C24.8613 183.24 22.8455 186.21 23.4328 189.284L31.7827 232.975C32.3874 235.945 34.9241 238.139 37.9513 238.312C38.0783 238.319 38.2045 238.322 38.3308 238.322C41.2076 238.322 43.7858 236.467 44.683 233.705C44.7042 233.64 44.7246 233.574 44.7435 233.508L52.6974 205.604L60.9468 233.565C60.9665 233.632 60.9876 233.7 61.0096 233.766C61.9755 236.642 64.7722 238.515 67.7896 238.304C70.8161 238.101 73.3301 235.879 73.9143 232.837L81.7859 189.228C82.3414 186.148 80.2946 183.199 77.2129 182.643V182.643Z" fill="#3A2228"/>
<path d="M150.738 226.991H140.726V187.915C140.726 184.784 138.187 182.246 135.057 182.246C131.926 182.246 129.388 184.784 129.388 187.915V232.659C129.388 235.79 131.926 238.328 135.057 238.328H150.738C153.869 238.328 156.407 235.79 156.407 232.659C156.407 229.529 153.869 226.991 150.738 226.991Z" fill="#3A2228"/>
<path d="M201.854 222.035C199.458 220.021 195.882 220.333 193.868 222.73C193.477 223.195 193.057 223.629 192.622 224.018C190.378 226.015 187.512 227.028 184.102 227.028C174.882 227.028 167.38 219.527 167.38 210.306C167.38 201.086 174.882 193.584 184.102 193.584C187.454 193.584 190.685 194.57 193.448 196.436C196.043 198.189 199.566 197.507 201.319 194.913C203.071 192.318 202.39 188.794 199.795 187.041C195.151 183.904 189.725 182.246 184.102 182.246C168.63 182.246 156.042 194.833 156.042 210.306C156.042 225.779 168.63 238.366 184.102 238.366C190.288 238.366 195.841 236.333 200.164 232.483C201.006 231.732 201.81 230.904 202.55 230.022C204.563 227.624 204.252 224.049 201.854 222.035Z" fill="#3A2228"/>
<path d="M113.693 193.584C116.824 193.584 119.362 191.046 119.362 187.915C119.362 184.784 116.824 182.246 113.693 182.246H94.9961C91.8653 182.246 89.3271 184.784 89.3271 187.915V232.288C89.3271 235.419 91.8653 237.957 94.9961 237.957H113.693C116.824 237.957 119.362 235.419 119.362 232.288C119.362 229.158 116.824 226.619 113.693 226.619H100.665V215.771H112.315C115.446 215.771 117.984 213.232 117.984 210.102C117.984 206.971 115.446 204.433 112.315 204.433H100.665V193.584H113.693Z" fill="#3A2228"/>
<path d="M358.001 226.678H344.973V215.829H356.622C359.754 215.829 362.291 213.291 362.291 210.16C362.291 207.03 359.754 204.492 356.622 204.492H344.973V193.643H358.001C361.133 193.643 363.67 191.105 363.67 187.974C363.67 184.843 361.133 182.305 358.001 182.305H339.304C336.173 182.305 333.635 184.843 333.635 187.974V232.347C333.635 235.478 336.173 238.016 339.304 238.016H358.001C361.133 238.016 363.67 235.478 363.67 232.347C363.67 229.216 361.132 226.678 358.001 226.678Z" fill="#3A2228"/>
</svg>
