<svg width="160" height="160" viewBox="0 0 160 160" fill="none" xmlns="http://www.w3.org/2000/svg">
<path d="M157.656 80C157.656 122.888 122.888 157.656 80 157.656C37.1118 157.656 2.34375 122.888 2.34375 80C2.34375 37.1118 37.1118 2.34375 80 2.34375C122.888 2.34375 157.656 37.1118 157.656 80Z" fill="#79F2C0"/>
<path d="M74.4006 132.477C80.8081 126.403 83.6487 118.014 83.6487 118.014L73.3215 109.246C73.3215 109.246 60.6311 84.866 60.7092 84.927C32.3755 51.9778 53.7646 7.30371 54.0076 6.80078C23.905 17.4929 2.34375 46.2307 2.34375 80.0002C2.34375 119.97 32.5464 152.887 71.3708 157.183C66.3123 149.521 67.4658 139.049 74.4006 132.477Z" fill="#36B37E"/>
<path d="M75.2528 121.742C72.8334 121.742 70.4005 120.968 68.351 119.386L31.7433 91.1473C26.797 87.3326 25.8802 80.2305 29.6962 75.2842C33.5109 70.3392 40.6129 69.4224 45.558 73.2371L73.8807 95.0853L112.958 51.8382C117.145 47.2044 124.297 46.8419 128.932 51.0301C133.566 55.2171 133.928 62.368 129.741 67.003L83.6488 118.014C81.4259 120.475 78.351 121.742 75.2528 121.742Z" fill="#FFF0B3"/>
<path d="M80 160C58.6316 160 38.5413 151.678 23.4314 136.569C8.32153 121.459 0 101.368 0 80C0 61.7944 5.95825 44.6423 17.2302 30.3967C18.0334 29.3823 19.5068 29.2102 20.5225 30.0134C21.5381 30.8167 21.709 32.29 20.9058 33.3057C10.2954 46.7151 4.6875 62.8613 4.6875 80C4.6875 100.117 12.5208 119.03 26.7456 133.254C40.9705 147.479 59.8828 155.312 80 155.312C100.117 155.312 119.03 147.479 133.254 133.254C147.479 119.03 155.312 100.117 155.312 80C155.312 59.8828 147.479 40.9705 133.254 26.7456C119.03 12.5208 100.117 4.6875 80 4.6875C60.1831 4.6875 41.4734 12.3218 27.3157 26.1829C26.3916 27.0874 24.9072 27.0728 24.0015 26.1475C23.0957 25.2222 23.1116 23.739 24.0356 22.8333C39.0747 8.10913 58.9502 0 80 0C101.368 0 121.459 8.32153 136.569 23.4314C151.678 38.5413 160 58.6316 160 80C160 101.368 151.678 121.459 136.569 136.569C121.459 151.678 101.368 160 80 160Z" fill="#3A2228"/>
<path d="M75.254 124.086C72.212 124.086 69.3299 123.102 66.919 121.243L30.3113 93.004C27.4244 90.7762 25.5762 87.5572 25.1099 83.9403C24.6424 80.3233 25.6128 76.7418 27.8394 73.8536C30.0672 70.9666 33.2862 69.1197 36.9031 68.6522C40.5201 68.1859 44.1028 69.1551 46.9898 71.3829L73.595 91.9066L111.22 50.2684C113.663 47.5621 117.017 45.9703 120.658 45.786C124.301 45.6016 127.797 46.8455 130.503 49.2906C133.209 51.7357 134.801 55.0889 134.985 58.7315C135.17 62.3729 133.925 65.869 131.48 68.5753L125.234 75.4869C124.367 76.4476 122.885 76.5221 121.924 75.6541C120.964 74.7862 120.889 73.3043 121.757 72.3448L128.002 65.4332C131.316 61.765 131.052 56.0582 127.36 52.7696C122.131 48.1114 116.303 51.6331 114.697 53.4105L75.6202 96.6576C74.7999 97.5658 73.4192 97.689 72.45 96.942L44.126 75.0938C42.2315 73.6314 35.5335 71.4427 31.5516 76.7161C27.5696 81.9908 31.2781 87.8294 33.1739 89.2918L69.7815 117.53C71.3648 118.752 73.2569 119.397 75.254 119.397C77.7869 119.397 80.2137 118.32 81.9105 116.443L115.298 79.492C116.166 78.5313 117.648 78.4569 118.608 79.3248C119.568 80.1915 119.644 81.6746 118.776 82.6341L85.3882 119.586C82.804 122.445 79.1102 124.086 75.254 124.086Z" fill="#3A2228"/>
</svg>
