<svg width="40" height="40" viewBox="0 0 40 40" fill="none" xmlns="http://www.w3.org/2000/svg">
<path d="M16.0151 20.4689L16.9734 24.2178H19.9994V3.61572L12.0151 5.75508L15.9698 20.5142L16.0151 20.4689Z" fill="#A0E557"/>
<path d="M9.84337 39.2182H2.34366C1.4807 39.2182 0.78125 38.5187 0.78125 37.6558V24.9219C0.78125 24.0589 1.48078 23.3594 2.34366 23.3594H9.84345C10.7064 23.3594 11.4059 24.0589 11.4059 24.9219V37.6558C11.4059 38.5187 10.7063 39.2182 9.84337 39.2182Z" fill="#2E9DE3"/>
<path d="M19.999 39.221V0.782266L39.2172 0.78125V39.2185H28.5603L19.999 39.221Z" fill="#62CD4D"/>
<path d="M36.1288 28.5444V17.3674V12.2286V7.88572C34.5356 7.88572 33.2441 6.59417 33.2441 5.00098H25.9726C25.9726 6.59409 24.6811 7.88572 23.0879 7.88572V24.2191L36.1288 28.5444Z" fill="#D8FB93"/>
<circle cx="29.6085" cy="20.0001" r="2.95763" fill="#62CD4D"/>
<path d="M34.778 27.9691H32.3328C33.3683 27.9691 34.2077 27.1296 34.2077 26.0942C34.2077 25.0586 33.3683 24.2193 32.3328 24.2193H16.9732L15.7676 20.7168L11.4058 25.0786V36.5626L13.5602 38.4415C14.1349 38.9427 14.8716 39.2188 15.634 39.2188H30.3993C31.4505 39.2188 32.336 38.3585 32.3161 37.3076C32.2968 36.2888 31.4648 35.469 30.4415 35.469H33.0644C34.1155 35.469 35.0011 34.6087 34.9811 33.5578C34.9618 32.539 34.1299 31.7191 33.1065 31.7191H34.7778C35.8133 31.7191 36.6527 30.8797 36.6527 29.8442C36.653 28.8085 35.8135 27.9691 34.778 27.9691Z" fill="#FFCDAC"/>
<path d="M19.8614 8.16504L18.8967 8.42355C19.309 9.96253 18.3958 11.5442 16.8569 11.9566L19.9993 23.5928" fill="#D8FB93"/>
<path d="M6.09326 35.3125C5.88779 35.3125 5.68623 35.396 5.54092 35.5414C5.3956 35.6868 5.31201 35.8883 5.31201 36.0937C5.31201 36.2992 5.39553 36.5008 5.54092 36.646C5.68623 36.7913 5.88779 36.875 6.09326 36.875C6.29872 36.875 6.50028 36.7914 6.64552 36.646C6.79083 36.5008 6.8745 36.2992 6.8745 36.0937C6.8745 35.8883 6.79091 35.6867 6.64552 35.5414C6.50021 35.3959 6.29865 35.3125 6.09326 35.3125Z" fill="black"/>
<path d="M36.1284 14.063C35.9229 14.063 35.7214 14.1465 35.5761 14.2919C35.4308 14.4372 35.3472 14.6388 35.3472 14.8442C35.3472 15.0497 35.4308 15.2513 35.5761 15.3965C35.7214 15.5418 35.9229 15.6255 36.1284 15.6255C36.3347 15.6255 36.5354 15.5419 36.6808 15.3965C36.8268 15.2513 36.9104 15.0497 36.9104 14.8442C36.9104 14.6388 36.8268 14.4372 36.6808 14.2919C36.5354 14.1465 36.3347 14.063 36.1284 14.063Z" fill="black"/>
<path fill-rule="evenodd" clip-rule="evenodd" d="M39.7699 0.228826C39.6233 0.0823431 39.4245 0 39.2173 0L19.9991 0.00101562C19.5677 0.00101562 19.218 0.350857 19.218 0.78226V3.01638L11.8126 5.00067C11.3959 5.11238 11.1485 5.54074 11.2602 5.95746L15.0982 20.2809L11.778 23.6012C11.3555 22.9841 10.6459 22.5783 9.84336 22.5783H2.34365C1.05132 22.5783 4.35351e-09 23.6297 4.35351e-09 24.922V37.656C-7.81201e-05 38.9483 1.05132 39.9997 2.34365 39.9997H9.84344C10.9413 39.9997 11.8649 39.2406 12.118 38.22L13.0469 39.0301C13.764 39.6554 14.6828 39.9998 15.6343 39.9998H39.2174C39.6488 39.9998 39.9987 39.6499 39.9987 39.2185V0.781244C39.9985 0.574058 39.9163 0.37531 39.7699 0.228826ZM19.218 17.7038L17.7931 12.4276C18.3882 12.1203 18.8754 11.6605 19.218 11.1116V17.7038ZM19.218 7.52885V4.63387L12.9716 6.30769L16.6408 20.0017C16.701 20.0824 16.746 20.1751 16.7718 20.2757L17.5798 23.4369H19.1477L16.1025 12.1606C16.0484 11.9603 16.0763 11.7467 16.1798 11.5669C16.2833 11.3871 16.4542 11.256 16.6546 11.2023C17.7749 10.902 18.4422 9.74633 18.142 8.62595C18.0883 8.4258 18.1164 8.2126 18.22 8.03314C18.3236 7.85369 18.4942 7.72283 18.6944 7.66916L19.218 7.52885ZM9.84329 38.4373H2.34358C1.9128 38.4373 1.56233 38.0868 1.56233 37.656V24.9221C1.56233 24.4913 1.9128 24.1408 2.34358 24.1408H5.31223V33.1404C5.31223 33.5718 5.66207 33.9216 6.09347 33.9216C6.52487 33.9216 6.87471 33.5718 6.87471 33.1404V24.1408H9.84336C10.2741 24.1408 10.6246 24.4913 10.6246 24.9221V37.656C10.6245 38.0868 10.2741 38.4373 9.84329 38.4373ZM14.0736 37.8525C14.5061 38.2296 15.0603 38.4373 15.6341 38.4373V38.4375H30.4417C31.0448 38.4375 31.5354 37.9469 31.5354 37.3438C31.5354 36.7407 31.0448 36.25 30.4417 36.25H24.4626C24.0312 36.25 23.6813 35.9002 23.6813 35.4688C23.6813 35.0374 24.0312 34.6876 24.4626 34.6876H33.1065C33.7096 34.6876 34.2002 34.1969 34.2002 33.5938C34.2002 32.9907 33.7096 32.5001 33.1065 32.5001H24.4626C24.0312 32.5001 23.6813 32.1502 23.6813 31.7188C23.6813 31.2874 24.0312 30.9376 24.4626 30.9376H34.7781C35.3812 30.9376 35.8718 30.447 35.8718 29.8438C35.8718 29.2407 35.3812 28.7501 34.7781 28.7501H24.4626C24.0312 28.7501 23.6813 28.4003 23.6813 27.9689C23.6813 27.5375 24.0312 27.1876 24.4626 27.1876H32.3328C32.9359 27.1876 33.4266 26.697 33.4266 26.0939C33.4266 25.4907 32.9359 25.0001 32.3328 25.0001L16.9732 24.9992C16.6163 24.9992 16.3048 24.7573 16.2164 24.4115L15.5978 21.9912L12.187 25.4019V36.2072L14.0736 37.8525ZM38.4361 38.4373H32.8612C33.0127 38.1035 33.0978 37.7334 33.0978 37.3436C33.0978 36.9537 33.0127 36.5836 32.8612 36.2498H33.1065C34.5711 36.2498 35.7626 35.0583 35.7626 33.5937C35.7626 33.1665 35.6607 32.7628 35.4807 32.4048C36.6054 32.0959 37.4342 31.0651 37.4342 29.8438C37.4342 29.2513 37.239 28.7035 36.9099 28.2614V18.3598C36.9099 17.9284 36.56 17.5785 36.1286 17.5785C35.6972 17.5785 35.3474 17.9284 35.3474 18.3598V27.2497C35.1638 27.2095 34.9734 27.1876 34.7779 27.1876H34.7523C34.9038 26.8538 34.9889 26.4837 34.9889 26.0939C34.9889 24.6293 33.7973 23.4377 32.3327 23.4377H31.0769C32.4104 22.8658 33.3469 21.5404 33.3469 19.9999C33.3469 17.9382 31.6698 16.261 29.6081 16.261C27.5465 16.261 25.8695 17.9383 25.8695 19.9999C25.8695 21.5404 26.8061 22.8658 28.1396 23.4377H23.869V8.58298C25.2647 8.27884 26.3659 7.17768 26.67 5.78199H32.5466C32.8506 7.17768 33.9519 8.27884 35.3475 8.58298V11.0119C35.3475 11.4433 35.6973 11.7931 36.1287 11.7931C36.5601 11.7931 36.91 11.4433 36.91 11.0119V7.88549C36.91 7.45409 36.5601 7.10424 36.1287 7.10424C34.9688 7.10424 34.0253 6.16058 34.0253 5.00074C34.0253 4.56934 33.6755 4.2195 33.244 4.2195H25.9725C25.5411 4.2195 25.1913 4.56934 25.1913 5.00074C25.1913 6.16066 24.2477 7.10424 23.0879 7.10424C22.6565 7.10424 22.3066 7.45409 22.3066 7.88549V23.4376H20.7805V1.56335L38.4362 1.56249V38.4372H38.4361V38.4373ZM27.432 19.9999C27.432 21.1999 28.4082 22.1762 29.6083 22.1762C30.8084 22.1762 31.7846 21.1998 31.7846 19.9999C31.7846 18.7999 30.8083 17.8235 29.6083 17.8235C28.4083 17.8235 27.432 18.7999 27.432 19.9999Z" fill="black"/>
</svg>
