<svg width="139" height="160" viewBox="0 0 139 160" fill="none" xmlns="http://www.w3.org/2000/svg">
<ellipse cx="61.9988" cy="139.494" rx="18.1912" ry="18.1615" fill="#FFC400"/>
<path d="M61.9991 121.332C60.1597 121.332 58.3853 121.607 56.7119 122.114C64.1794 124.376 69.6159 131.3 69.6159 139.494C69.6159 147.688 64.1794 154.613 56.7119 156.874C58.3853 157.381 60.1597 157.656 61.9991 157.656C72.0456 157.656 80.1903 149.525 80.1903 139.494C80.1903 129.464 72.0456 121.332 61.9991 121.332Z" fill="#FFAB00"/>
<path d="M64.1244 33.497C58.2825 34.6689 52.5951 30.8908 51.421 25.0583C50.2473 19.2258 54.0313 13.5474 59.8735 12.3756C65.7156 11.2037 71.4028 14.9818 72.5769 20.8143C73.7509 26.6468 69.9662 32.3249 64.1244 33.497Z" fill="#FFC400"/>
<path d="M72.5767 20.8143C71.403 14.9815 65.7155 11.2037 59.8733 12.3756C59.3296 12.4846 58.804 12.6331 58.2983 12.8165C61.709 14.0631 64.4089 16.9987 65.1771 20.8143C66.2417 26.104 63.228 31.2664 58.2996 33.0558C60.1027 33.7146 62.104 33.9021 64.1243 33.4967C69.9661 32.3249 73.7505 26.6468 72.5767 20.8143Z" fill="#FFAB00"/>
<path d="M107.055 136.455H16.9423C8.87949 136.455 2.34326 129.93 2.34326 121.88C2.34326 117.423 4.36325 113.206 7.83762 110.408L10.7329 108.077C17.4291 102.685 21.3219 94.5578 21.3219 85.9691V70.651C21.3219 48.0514 39.6725 29.7305 62.3087 29.7305C84.9451 29.7305 103.295 48.0511 103.295 70.651V86.2522C103.295 94.679 107.043 102.671 113.526 108.067L116.346 110.414C119.709 113.214 121.654 117.361 121.654 121.733V121.88C121.654 129.93 115.118 136.455 107.055 136.455Z" fill="#FFE380"/>
<path d="M116.346 110.414L113.526 108.067C107.044 102.67 103.296 94.6787 103.296 86.2518V70.6506C103.296 48.051 84.9453 29.7302 62.3088 29.7302C58.2985 29.7302 54.4239 30.3077 50.7607 31.3795C67.7741 36.3583 80.1994 52.0544 80.1994 70.6503V86.2515C80.1994 94.6783 83.9475 102.67 90.4303 108.066L93.2496 110.413C96.6134 113.213 98.5581 117.36 98.5581 121.733V121.879C98.5581 129.929 92.0218 136.455 83.959 136.455H107.055C115.118 136.455 121.654 129.929 121.654 121.879V121.733C121.655 117.36 119.71 113.214 116.346 110.414Z" fill="#FFC400"/>
<ellipse cx="100.509" cy="37.4642" rx="35.1777" ry="35.1205" fill="#FF5630"/>
<path d="M109.948 3.62469C118.919 9.98936 124.772 20.4487 124.772 32.2727C124.772 51.6692 109.022 67.3932 89.5944 67.3932C86.3241 67.3932 83.1588 66.946 80.1548 66.1126C85.9001 70.1885 92.9238 72.5851 100.508 72.5851C119.937 72.5851 135.686 56.861 135.686 37.4642C135.686 21.3327 124.792 7.74312 109.948 3.62469Z" fill="#DE350B"/>
<path fill-rule="evenodd" clip-rule="evenodd" d="M133.343 37.4642C133.343 38.7589 134.392 39.808 135.687 39.808C136.981 39.808 138.03 38.7589 138.03 37.4642C138.03 16.8062 121.198 0 100.509 0C88.7968 0 78.3225 5.38685 71.4366 13.8081C68.3854 10.6496 63.8932 9.18121 59.4132 10.0775C55.9735 10.7684 53.0095 12.7546 51.0661 15.6706C49.1223 18.5871 48.4323 22.0852 49.1232 25.5221C49.3739 26.7633 49.7989 27.9477 50.3789 29.048C31.9846 34.2952 18.9771 51.2501 18.9771 70.65C18.9771 71.9447 20.0262 72.9938 21.3209 72.9938C22.6155 72.9938 23.6646 71.9447 23.6646 70.65C23.6646 52.2789 36.7458 36.3645 54.7682 32.8061C54.7702 32.8059 54.7723 32.8054 54.7744 32.8049L54.7745 32.8049L54.776 32.8046H54.7763C57.2463 32.3196 59.7804 32.0736 62.3076 32.0736C62.6644 32.0736 63.0204 32.0799 63.3754 32.0896C63.1216 33.8455 62.9876 35.6392 62.9876 37.4642C62.9876 58.122 79.8194 74.9288 100.509 74.9288C100.592 74.9288 100.674 74.9265 100.756 74.9242C100.821 74.9225 100.885 74.9207 100.95 74.92V86.2531C100.95 95.4006 104.987 104.008 112.026 109.867L114.845 112.215C117.684 114.577 119.312 118.047 119.312 121.734V121.881C119.312 128.626 113.814 134.114 107.056 134.114H16.9434C10.1853 134.114 4.68717 128.626 4.68717 121.881C4.68717 120.039 5.10686 118.191 5.90091 116.536C6.69654 114.876 7.87403 113.389 9.30871 112.235L12.2018 109.902C19.4868 104.037 23.6646 95.3137 23.6646 85.9687V80.8312C23.6646 79.5366 22.6155 78.4875 21.3209 78.4875C20.0262 78.4875 18.9771 79.5366 18.9771 80.8312V85.9687C18.9771 93.8878 15.4362 101.28 9.2609 106.252L6.36841 108.584C4.39373 110.173 2.76999 112.222 1.67437 114.509C0.578748 116.792 0 119.341 0 121.881C0 131.21 7.60091 138.801 16.9437 138.801H41.4795C41.4717 139.032 41.4648 139.263 41.4648 139.494C41.4648 150.801 50.677 160 62.0001 160C73.3232 160 82.5353 150.801 82.5353 139.494C82.5353 139.264 82.5284 139.032 82.5206 138.801H107.057C116.399 138.801 124 131.211 124 121.881V121.734C124 116.65 121.757 111.868 117.845 108.612L115.026 106.265C109.06 101.298 105.639 94.0046 105.639 86.2531V74.5778C112.009 73.7153 118.003 71.2491 123.197 67.306C129.554 62.481 134.285 55.6317 136.52 48.0198C136.885 46.7779 136.174 45.4754 134.932 45.1108C133.69 44.7464 132.387 45.4576 132.023 46.6995C130.068 53.3564 125.927 59.3485 120.363 63.5719C114.615 67.9347 107.75 70.2407 100.509 70.2407C82.4047 70.2407 67.6757 55.537 67.6757 37.4636C67.675 19.3912 82.4044 4.68748 100.509 4.68748C118.614 4.68748 133.343 19.3912 133.343 37.4642ZM77.8475 139.494C77.8475 148.216 70.7382 155.312 61.9998 155.312C53.2614 155.312 46.152 148.216 46.152 139.494C46.152 139.263 46.1576 139.032 46.1679 138.8H77.8316C77.8419 139.032 77.8475 139.263 77.8475 139.494ZM55.2226 27.9649C57.5601 27.5824 59.9363 27.3861 62.3076 27.3861C62.9932 27.3861 63.6772 27.4021 64.3554 27.4336C65.321 23.9683 66.7744 20.7043 68.6363 17.7187C66.6932 15.2449 63.5076 14.0368 60.3351 14.6734C58.1235 15.1174 56.2163 16.3949 54.967 18.2699C53.7185 20.1434 53.2751 22.3902 53.7185 24.5968C53.9673 25.8293 54.482 26.9749 55.2226 27.9649Z" fill="#3A2228"/>
<path fill-rule="evenodd" clip-rule="evenodd" d="M100.509 53.7595C101.803 53.7595 102.852 52.7104 102.852 51.4157V22.2137C102.852 21.2855 102.305 20.4452 101.456 20.0699C100.607 19.6952 99.6169 19.8559 98.9309 20.4805L93.9041 25.0571C92.9469 25.9283 92.8775 27.4108 93.7488 28.368C94.62 29.3252 96.1022 29.3949 97.0597 28.5233L98.165 27.5171V51.416C98.165 52.7104 99.2144 53.7595 100.509 53.7595Z" fill="white"/>
</svg>
