<svg width="32" height="32" viewBox="0 0 32 32" fill="none" xmlns="http://www.w3.org/2000/svg">
<path d="M16 0C24.8366 0 32 7.16344 32 16C32 24.8366 24.8366 32 16 32C7.16344 32 0 24.8366 0 16C0 7.16344 7.16344 0 16 0Z" fill="#F2E4D9"/>
<rect opacity="0.01" x="8" y="8" width="16" height="16" fill="white" fill-opacity="0.01"/>
<path fill-rule="evenodd" clip-rule="evenodd" d="M16 9C12.134 9 9 12.134 9 16C9 19.866 12.134 23 16 23C19.866 23 23 19.866 23 16C23 12.134 19.866 9 16 9ZM18 12.1678C18 12.4896 17.8902 12.7643 17.6696 12.9903C17.4496 13.217 17.1844 13.3305 16.8742 13.3305C16.5631 13.3305 16.2972 13.217 16.0747 12.9903C15.8525 12.7643 15.7412 12.4896 15.7412 12.1678C15.7412 11.8467 15.8525 11.5714 16.0747 11.3426C16.2968 11.1142 16.5631 11 16.8742 11C17.1843 11 17.4496 11.1145 17.6696 11.3426C17.8904 11.5714 18 11.8468 18 12.1678ZM17.8802 19.9208L17.7537 20.492C17.3743 20.6575 17.0711 20.7834 16.8454 20.87C16.6194 20.9568 16.3569 21 16.0577 21C15.5983 21 15.241 20.8757 14.9861 20.6288C14.7313 20.3809 14.6038 20.0667 14.6038 19.6857C14.6038 19.5381 14.6131 19.3864 14.6323 19.2318C14.6517 19.077 14.6825 18.9027 14.7247 18.7079L15.199 16.8537C15.2412 16.6762 15.277 16.5079 15.3057 16.3489C15.3349 16.1908 15.3489 16.0453 15.3489 15.9144C15.3489 15.6776 15.3045 15.512 15.2162 15.4188C15.1278 15.326 14.9592 15.2788 14.7089 15.2788C14.5863 15.2788 14.4603 15.3005 14.3319 15.3425C14.2028 15.3846 14.0926 15.4253 14 15.4631L14.1268 14.8915C14.4375 14.7518 14.7345 14.6321 15.0185 14.5328C15.3026 14.4332 15.571 14.3834 15.8249 14.3834C16.2811 14.3834 16.6332 14.5052 16.8804 14.7488C17.1276 14.9926 17.2512 15.3086 17.2512 15.698C17.2512 15.7786 17.2431 15.9205 17.2256 16.1235C17.2086 16.3268 17.1769 16.5131 17.1306 16.6826L16.6584 18.5293C16.6197 18.6777 16.5849 18.8472 16.5546 19.038C16.5234 19.2276 16.5084 19.3724 16.5084 19.4696C16.5084 19.7148 16.5579 19.8822 16.6572 19.9712C16.7571 20.0602 16.9293 20.1045 17.1739 20.1045C17.2887 20.1045 17.4193 20.082 17.5645 20.0378C17.7092 19.9936 17.8148 19.9548 17.8802 19.9208Z" fill="#A77366"/>
</svg>
